<?xml version="1.0" encoding="UTF-8" standalone="no"?><svg xmlns="http://www.w3.org/2000/svg" xmlns:xlink="http://www.w3.org/1999/xlink" contentScriptType="application/ecmascript" contentStyleType="text/css" height="1511px" preserveAspectRatio="none" style="width:821px;height:1511px;" version="1.1" viewBox="0 0 821 1511" width="821px" zoomAndPan="magnify"><defs><filter height="300%" id="f196ttbpps24z7" width="300%" x="-1" y="-1"><feGaussianBlur result="blurOut" stdDeviation="2.0"/><feColorMatrix in="blurOut" result="blurOut2" type="matrix" values="0 0 0 0 0 0 0 0 0 0 0 0 0 0 0 0 0 0 .4 0"/><feOffset dx="4.0" dy="4.0" in="blurOut2" result="blurOut3"/><feBlend in="SourceGraphic" in2="blurOut3" mode="normal"/></filter></defs><g><rect fill="#FFFFFF" filter="url(#f196ttbpps24z7)" height="59.6211" style="stroke: #000000; stroke-width: 2.0;" width="174" x="109" y="341.6621"/><rect fill="#FFFFFF" filter="url(#f196ttbpps24z7)" height="875.4531" style="stroke: #000000; stroke-width: 2.0;" width="720.5" x="79" y="553.2148"/><rect fill="#FFFFFF" filter="url(#f196ttbpps24z7)" height="59.6211" style="stroke: #000000; stroke-width: 2.0;" width="140" x="109" y="635.1465"/><rect fill="#FFFFFF" filter="url(#f196ttbpps24z7)" height="365.1055" style="stroke: #000000; stroke-width: 2.0;" width="637.5" x="89" y="708.7676"/><rect fill="#FFFFFF" height="305.4844" style="stroke: none; stroke-width: 1.0;" width="637.5" x="89" y="768.3887"/><rect fill="#FFFFFF" filter="url(#f196ttbpps24z7)" height="247.1738" style="stroke: #000000; stroke-width: 2.0;" width="617.5" x="99" y="777.3887"/><rect fill="#FFFFFF" filter="url(#f196ttbpps24z7)" height="59.6211" style="stroke: #000000; stroke-width: 2.0;" width="140" x="109" y="915.6309"/><rect fill="#FFFFFF" filter="url(#f196ttbpps24z7)" height="219.8633" style="stroke: #000000; stroke-width: 2.0;" width="297" x="99" y="1130.1836"/><rect fill="#FFFFFF" height="75.6211" style="stroke: none; stroke-width: 1.0;" width="297" x="99" y="1274.4258"/><rect fill="#FFFFFF" filter="url(#f196ttbpps24z7)" height="59.6211" style="stroke: #000000; stroke-width: 2.0;" width="277" x="109" y="1283.4258"/><line style="stroke: #A80036; stroke-width: 1.0;" x1="153" x2="153" y1="38.4883" y2="121.1094"/><line style="stroke: #A80036; stroke-width: 1.0; stroke-dasharray: 1.0,4.0;" x1="153" x2="153" y1="121.1094" y2="149.1094"/><line style="stroke: #A80036; stroke-width: 1.0;" x1="153" x2="153" y1="149.1094" y2="1470.668"/><line style="stroke: #A80036; stroke-width: 1.0;" x1="460.5" x2="460.5" y1="38.4883" y2="121.1094"/><line style="stroke: #A80036; stroke-width: 1.0; stroke-dasharray: 1.0,4.0;" x1="460.5" x2="460.5" y1="121.1094" y2="149.1094"/><line style="stroke: #A80036; stroke-width: 1.0;" x1="460.5" x2="460.5" y1="149.1094" y2="1470.668"/><line style="stroke: #A80036; stroke-width: 1.0;" x1="622.5" x2="622.5" y1="38.4883" y2="121.1094"/><line style="stroke: #A80036; stroke-width: 1.0; stroke-dasharray: 1.0,4.0;" x1="622.5" x2="622.5" y1="121.1094" y2="149.1094"/><line style="stroke: #A80036; stroke-width: 1.0;" x1="622.5" x2="622.5" y1="149.1094" y2="1470.668"/><line style="stroke: #A80036; stroke-width: 1.0;" x1="752.5" x2="752.5" y1="38.4883" y2="121.1094"/><line style="stroke: #A80036; stroke-width: 1.0; stroke-dasharray: 1.0,4.0;" x1="752.5" x2="752.5" y1="121.1094" y2="149.1094"/><line style="stroke: #A80036; stroke-width: 1.0;" x1="752.5" x2="752.5" y1="149.1094" y2="1470.668"/><rect fill="#FEFECE" filter="url(#f196ttbpps24z7)" height="30.4883" style="stroke: #A80036; stroke-width: 1.5;" width="64" x="119" y="3"/><text fill="#000000" font-family="sans-serif" font-size="14" lengthAdjust="spacingAndGlyphs" textLength="50" x="126" y="23.5352">Verifier</text><rect fill="#FEFECE" filter="url(#f196ttbpps24z7)" height="30.4883" style="stroke: #A80036; stroke-width: 1.5;" width="64" x="119" y="1469.668"/><text fill="#000000" font-family="sans-serif" font-size="14" lengthAdjust="spacingAndGlyphs" textLength="50" x="126" y="1490.2031">Verifier</text><rect fill="#FEFECE" filter="url(#f196ttbpps24z7)" height="30.4883" style="stroke: #A80036; stroke-width: 1.5;" width="131" x="393.5" y="3"/><text fill="#000000" font-family="sans-serif" font-size="14" lengthAdjust="spacingAndGlyphs" textLength="117" x="400.5" y="23.5352">Attested Account</text><rect fill="#FEFECE" filter="url(#f196ttbpps24z7)" height="30.4883" style="stroke: #A80036; stroke-width: 1.5;" width="131" x="393.5" y="1469.668"/><text fill="#000000" font-family="sans-serif" font-size="14" lengthAdjust="spacingAndGlyphs" textLength="117" x="400.5" y="1490.2031">Attested Account</text><rect fill="#FEFECE" filter="url(#f196ttbpps24z7)" height="30.4883" style="stroke: #A80036; stroke-width: 1.5;" width="164" x="538.5" y="3"/><text fill="#000000" font-family="sans-serif" font-size="14" lengthAdjust="spacingAndGlyphs" textLength="150" x="545.5" y="23.5352">New Attested Account</text><rect fill="#FEFECE" filter="url(#f196ttbpps24z7)" height="30.4883" style="stroke: #A80036; stroke-width: 1.5;" width="164" x="538.5" y="1469.668"/><text fill="#000000" font-family="sans-serif" font-size="14" lengthAdjust="spacingAndGlyphs" textLength="150" x="545.5" y="1490.2031">New Attested Account</text><rect fill="#FEFECE" filter="url(#f196ttbpps24z7)" height="30.4883" style="stroke: #A80036; stroke-width: 1.5;" width="69" x="716.5" y="3"/><text fill="#000000" font-family="sans-serif" font-size="14" lengthAdjust="spacingAndGlyphs" textLength="55" x="723.5" y="23.5352">Attestor</text><rect fill="#FEFECE" filter="url(#f196ttbpps24z7)" height="30.4883" style="stroke: #A80036; stroke-width: 1.5;" width="69" x="716.5" y="1469.668"/><text fill="#000000" font-family="sans-serif" font-size="14" lengthAdjust="spacingAndGlyphs" textLength="55" x="723.5" y="1490.2031">Attestor</text><rect fill="#EEEEEE" filter="url(#f196ttbpps24z7)" height="3" style="stroke: #EEEEEE; stroke-width: 1.0;" width="806.5" x="3" y="69.1436"/><line style="stroke: #000000; stroke-width: 1.0;" x1="3" x2="809.5" y1="69.1436" y2="69.1436"/><line style="stroke: #000000; stroke-width: 1.0;" x1="3" x2="809.5" y1="72.1436" y2="72.1436"/><rect fill="#EEEEEE" filter="url(#f196ttbpps24z7)" height="23.3105" style="stroke: #000000; stroke-width: 2.0;" width="103" x="354.75" y="58.4883"/><text fill="#000000" font-family="sans-serif" font-size="13" font-weight="bold" lengthAdjust="spacingAndGlyphs" textLength="85" x="360.75" y="75.0566">Precondition</text><polygon fill="#A80036" points="141,109.1094,151,113.1094,141,117.1094,145,113.1094" style="stroke: #A80036; stroke-width: 1.0;"/><line style="stroke: #A80036; stroke-width: 1.0;" x1="3" x2="147" y1="113.1094" y2="113.1094"/><text fill="#000000" font-family="sans-serif" font-size="13" lengthAdjust="spacingAndGlyphs" textLength="126" x="10" y="108.3672">received data object</text><rect fill="#EEEEEE" filter="url(#f196ttbpps24z7)" height="3" style="stroke: #EEEEEE; stroke-width: 1.0;" width="806.5" x="3" y="169.7646"/><line style="stroke: #000000; stroke-width: 1.0;" x1="3" x2="809.5" y1="169.7646" y2="169.7646"/><line style="stroke: #000000; stroke-width: 1.0;" x1="3" x2="809.5" y1="172.7646" y2="172.7646"/><rect fill="#EEEEEE" filter="url(#f196ttbpps24z7)" height="23.3105" style="stroke: #000000; stroke-width: 2.0;" width="130" x="341.25" y="159.1094"/><text fill="#000000" font-family="sans-serif" font-size="13" font-weight="bold" lengthAdjust="spacingAndGlyphs" textLength="112" x="347.25" y="175.6777">Data Verification</text><line style="stroke: #A80036; stroke-width: 1.0;" x1="153" x2="195" y1="213.7305" y2="213.7305"/><line style="stroke: #A80036; stroke-width: 1.0;" x1="195" x2="195" y1="213.7305" y2="226.7305"/><line style="stroke: #A80036; stroke-width: 1.0;" x1="154" x2="195" y1="226.7305" y2="226.7305"/><polygon fill="#A80036" points="164,222.7305,154,226.7305,164,230.7305,160,226.7305" style="stroke: #A80036; stroke-width: 1.0;"/><text fill="#000000" font-family="sans-serif" font-size="13" lengthAdjust="spacingAndGlyphs" textLength="85" x="160" y="208.9883">decode token</text><line style="stroke: #A80036; stroke-width: 1.0;" x1="153" x2="195" y1="256.041" y2="256.041"/><line style="stroke: #A80036; stroke-width: 1.0;" x1="195" x2="195" y1="256.041" y2="269.041"/><line style="stroke: #A80036; stroke-width: 1.0;" x1="154" x2="195" y1="269.041" y2="269.041"/><polygon fill="#A80036" points="164,265.041,154,269.041,164,273.041,160,269.041" style="stroke: #A80036; stroke-width: 1.0;"/><text fill="#000000" font-family="sans-serif" font-size="13" lengthAdjust="spacingAndGlyphs" textLength="144" x="160" y="251.2988">check validity of token</text><line style="stroke: #A80036; stroke-width: 1.0;" x1="153" x2="195" y1="313.6621" y2="313.6621"/><line style="stroke: #A80036; stroke-width: 1.0;" x1="195" x2="195" y1="313.6621" y2="326.6621"/><line style="stroke: #A80036; stroke-width: 1.0;" x1="154" x2="195" y1="326.6621" y2="326.6621"/><polygon fill="#A80036" points="164,322.6621,154,326.6621,164,330.6621,160,326.6621" style="stroke: #A80036; stroke-width: 1.0;"/><text fill="#000000" font-family="sans-serif" font-size="13" lengthAdjust="spacingAndGlyphs" textLength="144" x="160" y="293.6094">check validity of token</text><text fill="#000000" font-family="sans-serif" font-size="13" lengthAdjust="spacingAndGlyphs" textLength="98" x="160" y="308.9199">creator account</text><path d="M109,341.6621 L209,341.6621 L209,348.6621 L199,358.6621 L109,358.6621 L109,341.6621 " fill="#EEEEEE" style="stroke: #000000; stroke-width: 1.0;"/><rect fill="none" height="59.6211" style="stroke: #000000; stroke-width: 2.0;" width="174" x="109" y="341.6621"/><text fill="#000000" font-family="sans-serif" font-size="13" font-weight="bold" lengthAdjust="spacingAndGlyphs" textLength="55" x="124" y="355.2305">optional</text><line style="stroke: #A80036; stroke-width: 1.0;" x1="153" x2="195" y1="380.2832" y2="380.2832"/><line style="stroke: #A80036; stroke-width: 1.0;" x1="195" x2="195" y1="380.2832" y2="393.2832"/><line style="stroke: #A80036; stroke-width: 1.0;" x1="154" x2="195" y1="393.2832" y2="393.2832"/><polygon fill="#A80036" points="164,389.2832,154,393.2832,164,397.2832,160,393.2832" style="stroke: #A80036; stroke-width: 1.0;"/><text fill="#000000" font-family="sans-serif" font-size="13" lengthAdjust="spacingAndGlyphs" textLength="111" x="160" y="375.541">check data object</text><rect fill="#EEEEEE" filter="url(#f196ttbpps24z7)" height="3" style="stroke: #EEEEEE; stroke-width: 1.0;" width="806.5" x="3" y="453.9385"/><line style="stroke: #000000; stroke-width: 1.0;" x1="3" x2="809.5" y1="453.9385" y2="453.9385"/><line style="stroke: #000000; stroke-width: 1.0;" x1="3" x2="809.5" y1="456.9385" y2="456.9385"/><rect fill="#EEEEEE" filter="url(#f196ttbpps24z7)" height="23.3105" style="stroke: #000000; stroke-width: 2.0;" width="178" x="317.25" y="443.2832"/><text fill="#000000" font-family="sans-serif" font-size="13" font-weight="bold" lengthAdjust="spacingAndGlyphs" textLength="160" x="323.25" y="459.8516">Trust Chain Verification</text><polygon fill="#A80036" points="449,509.2148,459,513.2148,449,517.2148,453,513.2148" style="stroke: #A80036; stroke-width: 1.0;"/><line style="stroke: #A80036; stroke-width: 1.0;" x1="153" x2="455" y1="513.2148" y2="513.2148"/><text fill="#000000" font-family="sans-serif" font-size="13" lengthAdjust="spacingAndGlyphs" textLength="162" x="160" y="493.1621">get token creator account</text><text fill="#000000" font-family="sans-serif" font-size="13" lengthAdjust="spacingAndGlyphs" textLength="66" x="160" y="508.4727">data fields</text><path d="M79,553.2148 L153,553.2148 L153,560.2148 L143,570.2148 L79,570.2148 L79,553.2148 " fill="#EEEEEE" style="stroke: #000000; stroke-width: 1.0;"/><rect fill="none" height="875.4531" style="stroke: #000000; stroke-width: 2.0;" width="720.5" x="79" y="553.2148"/><text fill="#000000" font-family="sans-serif" font-size="13" font-weight="bold" lengthAdjust="spacingAndGlyphs" textLength="29" x="94" y="566.7832">loop</text><line style="stroke: #A80036; stroke-width: 1.0;" x1="153" x2="195" y1="607.1465" y2="607.1465"/><line style="stroke: #A80036; stroke-width: 1.0;" x1="195" x2="195" y1="607.1465" y2="620.1465"/><line style="stroke: #A80036; stroke-width: 1.0;" x1="154" x2="195" y1="620.1465" y2="620.1465"/><polygon fill="#A80036" points="164,616.1465,154,620.1465,164,624.1465,160,620.1465" style="stroke: #A80036; stroke-width: 1.0;"/><text fill="#000000" font-family="sans-serif" font-size="13" lengthAdjust="spacingAndGlyphs" textLength="149" x="160" y="587.0938">check formal validity of</text><text fill="#000000" font-family="sans-serif" font-size="13" lengthAdjust="spacingAndGlyphs" textLength="66" x="160" y="602.4043">data fields</text><path d="M109,635.1465 L209,635.1465 L209,642.1465 L199,652.1465 L109,652.1465 L109,635.1465 " fill="#EEEEEE" style="stroke: #000000; stroke-width: 1.0;"/><rect fill="none" height="59.6211" style="stroke: #000000; stroke-width: 2.0;" width="140" x="109" y="635.1465"/><text fill="#000000" font-family="sans-serif" font-size="13" font-weight="bold" lengthAdjust="spacingAndGlyphs" textLength="55" x="124" y="648.7148">optional</text><line style="stroke: #A80036; stroke-width: 1.0;" x1="153" x2="195" y1="673.7676" y2="673.7676"/><line style="stroke: #A80036; stroke-width: 1.0;" x1="195" x2="195" y1="673.7676" y2="686.7676"/><line style="stroke: #A80036; stroke-width: 1.0;" x1="154" x2="195" y1="686.7676" y2="686.7676"/><polygon fill="#A80036" points="164,682.7676,154,686.7676,164,690.7676,160,686.7676" style="stroke: #A80036; stroke-width: 1.0;"/><text fill="#000000" font-family="sans-serif" font-size="13" lengthAdjust="spacingAndGlyphs" textLength="77" x="160" y="669.0254">check entity</text><path d="M89,708.7676 L151,708.7676 L151,715.7676 L141,725.7676 L89,725.7676 L89,708.7676 " fill="#EEEEEE" style="stroke: #000000; stroke-width: 1.0;"/><rect fill="none" height="365.1055" style="stroke: #000000; stroke-width: 2.0;" width="637.5" x="89" y="708.7676"/><text fill="#000000" font-family="sans-serif" font-size="13" font-weight="bold" lengthAdjust="spacingAndGlyphs" textLength="17" x="104" y="722.3359">alt</text><text fill="#000000" font-family="sans-serif" font-size="11" font-weight="bold" lengthAdjust="spacingAndGlyphs" textLength="173" x="166" y="721.4023">[is data object creator account]</text><line style="stroke: #A80036; stroke-width: 1.0;" x1="153" x2="195" y1="747.3887" y2="747.3887"/><line style="stroke: #A80036; stroke-width: 1.0;" x1="195" x2="195" y1="747.3887" y2="760.3887"/><line style="stroke: #A80036; stroke-width: 1.0;" x1="154" x2="195" y1="760.3887" y2="760.3887"/><polygon fill="#A80036" points="164,756.3887,154,760.3887,164,764.3887,160,760.3887" style="stroke: #A80036; stroke-width: 1.0;"/><text fill="#000000" font-family="sans-serif" font-size="13" lengthAdjust="spacingAndGlyphs" textLength="195" x="160" y="742.6465">check if account state is active</text><line style="stroke: #000000; stroke-width: 1.0; stroke-dasharray: 2.0,2.0;" x1="89" x2="726.5" y1="769.3887" y2="769.3887"/><path d="M99,777.3887 L173,777.3887 L173,784.3887 L163,794.3887 L99,794.3887 L99,777.3887 " fill="#EEEEEE" style="stroke: #000000; stroke-width: 1.0;"/><rect fill="none" height="247.1738" style="stroke: #000000; stroke-width: 2.0;" width="617.5" x="99" y="777.3887"/><text fill="#000000" font-family="sans-serif" font-size="13" font-weight="bold" lengthAdjust="spacingAndGlyphs" textLength="29" x="114" y="790.957">loop</text><text fill="#000000" font-family="sans-serif" font-size="11" font-weight="bold" lengthAdjust="spacingAndGlyphs" textLength="220" x="188" y="790.0234">[as long as account state is deprecated]</text><polygon fill="#A80036" points="610.5,812.0098,620.5,816.0098,610.5,820.0098,614.5,816.0098" style="stroke: #A80036; stroke-width: 1.0;"/><line style="stroke: #A80036; stroke-width: 1.0;" x1="153" x2="616.5" y1="816.0098" y2="816.0098"/><text fill="#000000" font-family="sans-serif" font-size="13" lengthAdjust="spacingAndGlyphs" textLength="90" x="160" y="811.2676">get data fields</text><line style="stroke: #A80036; stroke-width: 1.0;" x1="153" x2="195" y1="845.3203" y2="845.3203"/><line style="stroke: #A80036; stroke-width: 1.0;" x1="195" x2="195" y1="845.3203" y2="858.3203"/><line style="stroke: #A80036; stroke-width: 1.0;" x1="154" x2="195" y1="858.3203" y2="858.3203"/><polygon fill="#A80036" points="164,854.3203,154,858.3203,164,862.3203,160,858.3203" style="stroke: #A80036; stroke-width: 1.0;"/><text fill="#000000" font-family="sans-serif" font-size="13" lengthAdjust="spacingAndGlyphs" textLength="219" x="160" y="840.5781">check formal validity of data fields</text><line style="stroke: #A80036; stroke-width: 1.0;" x1="153" x2="195" y1="887.6309" y2="887.6309"/><line style="stroke: #A80036; stroke-width: 1.0;" x1="195" x2="195" y1="887.6309" y2="900.6309"/><line style="stroke: #A80036; stroke-width: 1.0;" x1="154" x2="195" y1="900.6309" y2="900.6309"/><polygon fill="#A80036" points="164,896.6309,154,900.6309,164,904.6309,160,900.6309" style="stroke: #A80036; stroke-width: 1.0;"/><text fill="#000000" font-family="sans-serif" font-size="13" lengthAdjust="spacingAndGlyphs" textLength="108" x="160" y="882.8887">check entity type</text><path d="M109,915.6309 L209,915.6309 L209,922.6309 L199,932.6309 L109,932.6309 L109,915.6309 " fill="#EEEEEE" style="stroke: #000000; stroke-width: 1.0;"/><rect fill="none" height="59.6211" style="stroke: #000000; stroke-width: 2.0;" width="140" x="109" y="915.6309"/><text fill="#000000" font-family="sans-serif" font-size="13" font-weight="bold" lengthAdjust="spacingAndGlyphs" textLength="55" x="124" y="929.1992">optional</text><line style="stroke: #A80036; stroke-width: 1.0;" x1="153" x2="195" y1="954.252" y2="954.252"/><line style="stroke: #A80036; stroke-width: 1.0;" x1="195" x2="195" y1="954.252" y2="967.252"/><line style="stroke: #A80036; stroke-width: 1.0;" x1="154" x2="195" y1="967.252" y2="967.252"/><polygon fill="#A80036" points="164,963.252,154,967.252,164,971.252,160,967.252" style="stroke: #A80036; stroke-width: 1.0;"/><text fill="#000000" font-family="sans-serif" font-size="13" lengthAdjust="spacingAndGlyphs" textLength="77" x="160" y="949.5098">check entity</text><line style="stroke: #A80036; stroke-width: 1.0;" x1="153" x2="195" y1="1003.5625" y2="1003.5625"/><line style="stroke: #A80036; stroke-width: 1.0;" x1="195" x2="195" y1="1003.5625" y2="1016.5625"/><line style="stroke: #A80036; stroke-width: 1.0;" x1="154" x2="195" y1="1016.5625" y2="1016.5625"/><polygon fill="#A80036" points="164,1012.5625,154,1016.5625,164,1020.5625,160,1016.5625" style="stroke: #A80036; stroke-width: 1.0;"/><text fill="#000000" font-family="sans-serif" font-size="13" lengthAdjust="spacingAndGlyphs" textLength="294" x="160" y="998.8203">treat new attested account as attested account</text><line style="stroke: #A80036; stroke-width: 1.0;" x1="153" x2="195" y1="1052.873" y2="1052.873"/><line style="stroke: #A80036; stroke-width: 1.0;" x1="195" x2="195" y1="1052.873" y2="1065.873"/><line style="stroke: #A80036; stroke-width: 1.0;" x1="154" x2="195" y1="1065.873" y2="1065.873"/><polygon fill="#A80036" points="164,1061.873,154,1065.873,164,1069.873,160,1065.873" style="stroke: #A80036; stroke-width: 1.0;"/><text fill="#000000" font-family="sans-serif" font-size="13" lengthAdjust="spacingAndGlyphs" textLength="195" x="160" y="1048.1309">check if account state is active</text><line style="stroke: #A80036; stroke-width: 1.0;" x1="153" x2="195" y1="1102.1836" y2="1102.1836"/><line style="stroke: #A80036; stroke-width: 1.0;" x1="195" x2="195" y1="1102.1836" y2="1115.1836"/><line style="stroke: #A80036; stroke-width: 1.0;" x1="154" x2="195" y1="1115.1836" y2="1115.1836"/><polygon fill="#A80036" points="164,1111.1836,154,1115.1836,164,1119.1836,160,1115.1836" style="stroke: #A80036; stroke-width: 1.0;"/><text fill="#000000" font-family="sans-serif" font-size="13" lengthAdjust="spacingAndGlyphs" textLength="166" x="160" y="1097.4414">check if entity type is root</text><path d="M99,1130.1836 L161,1130.1836 L161,1137.1836 L151,1147.1836 L99,1147.1836 L99,1130.1836 " fill="#EEEEEE" style="stroke: #000000; stroke-width: 1.0;"/><rect fill="none" height="219.8633" style="stroke: #000000; stroke-width: 2.0;" width="297" x="99" y="1130.1836"/><text fill="#000000" font-family="sans-serif" font-size="13" font-weight="bold" lengthAdjust="spacingAndGlyphs" textLength="17" x="114" y="1143.752">alt</text><text fill="#000000" font-family="sans-serif" font-size="11" font-weight="bold" lengthAdjust="spacingAndGlyphs" textLength="72" x="176" y="1142.8184">[type is root]</text><line style="stroke: #A80036; stroke-width: 1.0;" x1="153" x2="195" y1="1168.8047" y2="1168.8047"/><line style="stroke: #A80036; stroke-width: 1.0;" x1="195" x2="195" y1="1168.8047" y2="1181.8047"/><line style="stroke: #A80036; stroke-width: 1.0;" x1="154" x2="195" y1="1181.8047" y2="1181.8047"/><polygon fill="#A80036" points="164,1177.8047,154,1181.8047,164,1185.8047,160,1181.8047" style="stroke: #A80036; stroke-width: 1.0;"/><text fill="#000000" font-family="sans-serif" font-size="13" lengthAdjust="spacingAndGlyphs" textLength="165" x="160" y="1164.0625">check if account is known</text><line style="stroke: #A80036; stroke-width: 1.0;" x1="153" x2="195" y1="1211.1152" y2="1211.1152"/><line style="stroke: #A80036; stroke-width: 1.0;" x1="195" x2="195" y1="1211.1152" y2="1224.1152"/><line style="stroke: #A80036; stroke-width: 1.0;" x1="154" x2="195" y1="1224.1152" y2="1224.1152"/><polygon fill="#A80036" points="164,1220.1152,154,1224.1152,164,1228.1152,160,1224.1152" style="stroke: #A80036; stroke-width: 1.0;"/><text fill="#000000" font-family="sans-serif" font-size="13" lengthAdjust="spacingAndGlyphs" textLength="185" x="160" y="1206.373">check if property was self set</text><line style="stroke: #A80036; stroke-width: 1.0;" x1="153" x2="195" y1="1253.4258" y2="1253.4258"/><line style="stroke: #A80036; stroke-width: 1.0;" x1="195" x2="195" y1="1253.4258" y2="1266.4258"/><line style="stroke: #A80036; stroke-width: 1.0;" x1="154" x2="195" y1="1266.4258" y2="1266.4258"/><polygon fill="#A80036" points="164,1262.4258,154,1266.4258,164,1270.4258,160,1266.4258" style="stroke: #A80036; stroke-width: 1.0;"/><text fill="#000000" font-family="sans-serif" font-size="13" lengthAdjust="spacingAndGlyphs" textLength="190" x="160" y="1248.6836">break loop and return success</text><line style="stroke: #000000; stroke-width: 1.0; stroke-dasharray: 2.0,2.0;" x1="99" x2="396" y1="1275.4258" y2="1275.4258"/><path d="M109,1283.4258 L171,1283.4258 L171,1290.4258 L161,1300.4258 L109,1300.4258 L109,1283.4258 " fill="#EEEEEE" style="stroke: #000000; stroke-width: 1.0;"/><rect fill="none" height="59.6211" style="stroke: #000000; stroke-width: 2.0;" width="277" x="109" y="1283.4258"/><text fill="#000000" font-family="sans-serif" font-size="13" font-weight="bold" lengthAdjust="spacingAndGlyphs" textLength="17" x="124" y="1296.9941">alt</text><text fill="#000000" font-family="sans-serif" font-size="11" font-weight="bold" lengthAdjust="spacingAndGlyphs" textLength="195" x="186" y="1296.0605">[is not data object creator account]</text><line style="stroke: #A80036; stroke-width: 1.0;" x1="153" x2="195" y1="1322.0469" y2="1322.0469"/><line style="stroke: #A80036; stroke-width: 1.0;" x1="195" x2="195" y1="1322.0469" y2="1335.0469"/><line style="stroke: #A80036; stroke-width: 1.0;" x1="154" x2="195" y1="1335.0469" y2="1335.0469"/><polygon fill="#A80036" points="164,1331.0469,154,1335.0469,164,1339.0469,160,1335.0469" style="stroke: #A80036; stroke-width: 1.0;"/><text fill="#000000" font-family="sans-serif" font-size="13" lengthAdjust="spacingAndGlyphs" textLength="188" x="160" y="1317.3047">check if entity type is not leaf</text><polygon fill="#A80036" points="741,1374.3574,751,1378.3574,741,1382.3574,745,1378.3574" style="stroke: #A80036; stroke-width: 1.0;"/><line style="stroke: #A80036; stroke-width: 1.0;" x1="153" x2="747" y1="1378.3574" y2="1378.3574"/><text fill="#000000" font-family="sans-serif" font-size="13" lengthAdjust="spacingAndGlyphs" textLength="90" x="160" y="1373.6152">get data fields</text><line style="stroke: #A80036; stroke-width: 1.0;" x1="153" x2="195" y1="1407.668" y2="1407.668"/><line style="stroke: #A80036; stroke-width: 1.0;" x1="195" x2="195" y1="1407.668" y2="1420.668"/><line style="stroke: #A80036; stroke-width: 1.0;" x1="154" x2="195" y1="1420.668" y2="1420.668"/><polygon fill="#A80036" points="164,1416.668,154,1420.668,164,1424.668,160,1420.668" style="stroke: #A80036; stroke-width: 1.0;"/><text fill="#000000" font-family="sans-serif" font-size="13" lengthAdjust="spacingAndGlyphs" textLength="209" x="160" y="1402.9258">treat attestor as attested account</text><!--
@startuml


participant "Verifier" as VERI
participant "Attested Account" as ATTD
participant "New Attested Account" as NATTD
participant "Attestor" as ATTE


== Precondition ==

-> VERI: received data object


...
== Data Verification ==

VERI -> VERI: decode token
VERI -> VERI: check validity of token
VERI -> VERI: check validity of token\ncreator account

group optional
    VERI -> VERI: check data object
end
|||


== Trust Chain Verification ==

VERI -> ATTD: get token creator account\ndata fields
|||

loop
    VERI -> VERI: check formal validity of\ndata fields

    group optional
        VERI -> VERI: check entity
    end

    alt is data object creator account 
        VERI -> VERI: check if account state is active
    else
        loop as long as account state is deprecated
            VERI -> NATTD: get data fields
            VERI -> VERI: check formal validity of data fields
            VERI -> VERI: check entity type
            
            group optional
                VERI -> VERI: check entity
            end
            
            VERI -> VERI: treat new attested account as attested account
        end
        VERI -> VERI: check if account state is active
    end

    VERI -> VERI: check if entity type is root
    alt type is root
        VERI -> VERI: check if account is known
        VERI -> VERI: check if property was self set
        VERI -> VERI: break loop and return success
    else
        alt is not data object creator account
            VERI -> VERI: check if entity type is not leaf
        end
    end
    VERI -> ATTE: get data fields
    VERI -> VERI: treat attestor as attested account
end
|||

@enduml

PlantUML version 1.2019.09(Mon Aug 26 18:19:51 CEST 2019)
(GPL source distribution)
Java Runtime: Java(TM) SE Runtime Environment
JVM: Java HotSpot(TM) 64-Bit Server VM
Java Version: 1.8.0_191-b12
Operating System: Mac OS X
OS Version: 10.15.2
Default Encoding: UTF-8
Language: en
Country: DE
--></g></svg>