<?xml version="1.0" encoding="UTF-8" standalone="no"?><svg xmlns="http://www.w3.org/2000/svg" xmlns:xlink="http://www.w3.org/1999/xlink" contentScriptType="application/ecmascript" contentStyleType="text/css" height="1511px" preserveAspectRatio="none" style="width:716px;height:1511px;" version="1.1" viewBox="0 0 716 1511" width="716px" zoomAndPan="magnify"><defs><filter height="300%" id="f14rvuw903eklf" width="300%" x="-1" y="-1"><feGaussianBlur result="blurOut" stdDeviation="2.0"/><feColorMatrix in="blurOut" result="blurOut2" type="matrix" values="0 0 0 0 0 0 0 0 0 0 0 0 0 0 0 0 0 0 .4 0"/><feOffset dx="4.0" dy="4.0" in="blurOut2" result="blurOut3"/><feBlend in="SourceGraphic" in2="blurOut3" mode="normal"/></filter></defs><g><rect fill="#FFFFFF" filter="url(#f14rvuw903eklf)" height="59.6211" style="stroke: #000000; stroke-width: 2.0;" width="138" x="73" y="341.6621"/><rect fill="#FFFFFF" filter="url(#f14rvuw903eklf)" height="875.4531" style="stroke: #000000; stroke-width: 2.0;" width="651.5" x="43" y="553.2148"/><rect fill="#FFFFFF" filter="url(#f14rvuw903eklf)" height="59.6211" style="stroke: #000000; stroke-width: 2.0;" width="140" x="73" y="635.1465"/><rect fill="#FFFFFF" filter="url(#f14rvuw903eklf)" height="365.1055" style="stroke: #000000; stroke-width: 2.0;" width="568.5" x="53" y="708.7676"/><rect fill="#FFFFFF" height="305.4844" style="stroke: none; stroke-width: 1.0;" width="568.5" x="53" y="768.3887"/><rect fill="#FFFFFF" filter="url(#f14rvuw903eklf)" height="247.1738" style="stroke: #000000; stroke-width: 2.0;" width="548.5" x="63" y="777.3887"/><rect fill="#FFFFFF" filter="url(#f14rvuw903eklf)" height="59.6211" style="stroke: #000000; stroke-width: 2.0;" width="140" x="73" y="915.6309"/><rect fill="#FFFFFF" filter="url(#f14rvuw903eklf)" height="219.8633" style="stroke: #000000; stroke-width: 2.0;" width="271" x="63" y="1130.1836"/><rect fill="#FFFFFF" height="75.6211" style="stroke: none; stroke-width: 1.0;" width="271" x="63" y="1274.4258"/><rect fill="#FFFFFF" filter="url(#f14rvuw903eklf)" height="59.6211" style="stroke: #000000; stroke-width: 2.0;" width="251" x="73" y="1283.4258"/><line style="stroke: #A80036; stroke-width: 1.0;" x1="117" x2="117" y1="38.4883" y2="121.1094"/><line style="stroke: #A80036; stroke-width: 1.0; stroke-dasharray: 1.0,4.0;" x1="117" x2="117" y1="121.1094" y2="149.1094"/><line style="stroke: #A80036; stroke-width: 1.0;" x1="117" x2="117" y1="149.1094" y2="1470.668"/><line style="stroke: #A80036; stroke-width: 1.0;" x1="349.5" x2="349.5" y1="38.4883" y2="121.1094"/><line style="stroke: #A80036; stroke-width: 1.0; stroke-dasharray: 1.0,4.0;" x1="349.5" x2="349.5" y1="121.1094" y2="149.1094"/><line style="stroke: #A80036; stroke-width: 1.0;" x1="349.5" x2="349.5" y1="149.1094" y2="1470.668"/><line style="stroke: #A80036; stroke-width: 1.0;" x1="515.5" x2="515.5" y1="38.4883" y2="121.1094"/><line style="stroke: #A80036; stroke-width: 1.0; stroke-dasharray: 1.0,4.0;" x1="515.5" x2="515.5" y1="121.1094" y2="149.1094"/><line style="stroke: #A80036; stroke-width: 1.0;" x1="515.5" x2="515.5" y1="149.1094" y2="1470.668"/><line style="stroke: #A80036; stroke-width: 1.0;" x1="647.5" x2="647.5" y1="38.4883" y2="121.1094"/><line style="stroke: #A80036; stroke-width: 1.0; stroke-dasharray: 1.0,4.0;" x1="647.5" x2="647.5" y1="121.1094" y2="149.1094"/><line style="stroke: #A80036; stroke-width: 1.0;" x1="647.5" x2="647.5" y1="149.1094" y2="1470.668"/><rect fill="#FEFECE" filter="url(#f14rvuw903eklf)" height="30.4883" style="stroke: #A80036; stroke-width: 1.5;" width="64" x="83" y="3"/><text fill="#000000" font-family="sans-serif" font-size="14" lengthAdjust="spacingAndGlyphs" textLength="50" x="90" y="23.5352">Verifier</text><rect fill="#FEFECE" filter="url(#f14rvuw903eklf)" height="30.4883" style="stroke: #A80036; stroke-width: 1.5;" width="64" x="83" y="1469.668"/><text fill="#000000" font-family="sans-serif" font-size="14" lengthAdjust="spacingAndGlyphs" textLength="50" x="90" y="1490.2031">Verifier</text><rect fill="#FEFECE" filter="url(#f14rvuw903eklf)" height="30.4883" style="stroke: #A80036; stroke-width: 1.5;" width="135" x="280.5" y="3"/><text fill="#000000" font-family="sans-serif" font-size="14" lengthAdjust="spacingAndGlyphs" textLength="121" x="287.5" y="23.5352">Claimant Account</text><rect fill="#FEFECE" filter="url(#f14rvuw903eklf)" height="30.4883" style="stroke: #A80036; stroke-width: 1.5;" width="135" x="280.5" y="1469.668"/><text fill="#000000" font-family="sans-serif" font-size="14" lengthAdjust="spacingAndGlyphs" textLength="121" x="287.5" y="1490.2031">Claimant Account</text><rect fill="#FEFECE" filter="url(#f14rvuw903eklf)" height="30.4883" style="stroke: #A80036; stroke-width: 1.5;" width="168" x="429.5" y="3"/><text fill="#000000" font-family="sans-serif" font-size="14" lengthAdjust="spacingAndGlyphs" textLength="154" x="436.5" y="23.5352">New Claimant Account</text><rect fill="#FEFECE" filter="url(#f14rvuw903eklf)" height="30.4883" style="stroke: #A80036; stroke-width: 1.5;" width="168" x="429.5" y="1469.668"/><text fill="#000000" font-family="sans-serif" font-size="14" lengthAdjust="spacingAndGlyphs" textLength="154" x="436.5" y="1490.2031">New Claimant Account</text><rect fill="#FEFECE" filter="url(#f14rvuw903eklf)" height="30.4883" style="stroke: #A80036; stroke-width: 1.5;" width="69" x="611.5" y="3"/><text fill="#000000" font-family="sans-serif" font-size="14" lengthAdjust="spacingAndGlyphs" textLength="55" x="618.5" y="23.5352">Attestor</text><rect fill="#FEFECE" filter="url(#f14rvuw903eklf)" height="30.4883" style="stroke: #A80036; stroke-width: 1.5;" width="69" x="611.5" y="1469.668"/><text fill="#000000" font-family="sans-serif" font-size="14" lengthAdjust="spacingAndGlyphs" textLength="55" x="618.5" y="1490.2031">Attestor</text><rect fill="#EEEEEE" filter="url(#f14rvuw903eklf)" height="3" style="stroke: #EEEEEE; stroke-width: 1.0;" width="701.5" x="3" y="69.1436"/><line style="stroke: #000000; stroke-width: 1.0;" x1="3" x2="704.5" y1="69.1436" y2="69.1436"/><line style="stroke: #000000; stroke-width: 1.0;" x1="3" x2="704.5" y1="72.1436" y2="72.1436"/><rect fill="#EEEEEE" filter="url(#f14rvuw903eklf)" height="23.3105" style="stroke: #000000; stroke-width: 2.0;" width="103" x="302.25" y="58.4883"/><text fill="#000000" font-family="sans-serif" font-size="13" font-weight="bold" lengthAdjust="spacingAndGlyphs" textLength="85" x="308.25" y="75.0566">Precondition</text><polygon fill="#A80036" points="105,109.1094,115,113.1094,105,117.1094,109,113.1094" style="stroke: #A80036; stroke-width: 1.0;"/><line style="stroke: #A80036; stroke-width: 1.0;" x1="3" x2="111" y1="113.1094" y2="113.1094"/><text fill="#000000" font-family="sans-serif" font-size="13" lengthAdjust="spacingAndGlyphs" textLength="90" x="10" y="108.3672">received claim</text><rect fill="#EEEEEE" filter="url(#f14rvuw903eklf)" height="3" style="stroke: #EEEEEE; stroke-width: 1.0;" width="701.5" x="3" y="169.7646"/><line style="stroke: #000000; stroke-width: 1.0;" x1="3" x2="704.5" y1="169.7646" y2="169.7646"/><line style="stroke: #000000; stroke-width: 1.0;" x1="3" x2="704.5" y1="172.7646" y2="172.7646"/><rect fill="#EEEEEE" filter="url(#f14rvuw903eklf)" height="23.3105" style="stroke: #000000; stroke-width: 2.0;" width="137" x="285.25" y="159.1094"/><text fill="#000000" font-family="sans-serif" font-size="13" font-weight="bold" lengthAdjust="spacingAndGlyphs" textLength="119" x="291.25" y="175.6777">Claim Verification</text><line style="stroke: #A80036; stroke-width: 1.0;" x1="117" x2="159" y1="213.7305" y2="213.7305"/><line style="stroke: #A80036; stroke-width: 1.0;" x1="159" x2="159" y1="213.7305" y2="226.7305"/><line style="stroke: #A80036; stroke-width: 1.0;" x1="118" x2="159" y1="226.7305" y2="226.7305"/><polygon fill="#A80036" points="128,222.7305,118,226.7305,128,230.7305,124,226.7305" style="stroke: #A80036; stroke-width: 1.0;"/><text fill="#000000" font-family="sans-serif" font-size="13" lengthAdjust="spacingAndGlyphs" textLength="85" x="124" y="208.9883">decode token</text><line style="stroke: #A80036; stroke-width: 1.0;" x1="117" x2="159" y1="256.041" y2="256.041"/><line style="stroke: #A80036; stroke-width: 1.0;" x1="159" x2="159" y1="256.041" y2="269.041"/><line style="stroke: #A80036; stroke-width: 1.0;" x1="118" x2="159" y1="269.041" y2="269.041"/><polygon fill="#A80036" points="128,265.041,118,269.041,128,273.041,124,269.041" style="stroke: #A80036; stroke-width: 1.0;"/><text fill="#000000" font-family="sans-serif" font-size="13" lengthAdjust="spacingAndGlyphs" textLength="144" x="124" y="251.2988">check validity of token</text><line style="stroke: #A80036; stroke-width: 1.0;" x1="117" x2="159" y1="313.6621" y2="313.6621"/><line style="stroke: #A80036; stroke-width: 1.0;" x1="159" x2="159" y1="313.6621" y2="326.6621"/><line style="stroke: #A80036; stroke-width: 1.0;" x1="118" x2="159" y1="326.6621" y2="326.6621"/><polygon fill="#A80036" points="128,322.6621,118,326.6621,128,330.6621,124,326.6621" style="stroke: #A80036; stroke-width: 1.0;"/><text fill="#000000" font-family="sans-serif" font-size="13" lengthAdjust="spacingAndGlyphs" textLength="144" x="124" y="293.6094">check validity of token</text><text fill="#000000" font-family="sans-serif" font-size="13" lengthAdjust="spacingAndGlyphs" textLength="98" x="124" y="308.9199">creator account</text><path d="M73,341.6621 L173,341.6621 L173,348.6621 L163,358.6621 L73,358.6621 L73,341.6621 " fill="#EEEEEE" style="stroke: #000000; stroke-width: 1.0;"/><rect fill="none" height="59.6211" style="stroke: #000000; stroke-width: 2.0;" width="138" x="73" y="341.6621"/><text fill="#000000" font-family="sans-serif" font-size="13" font-weight="bold" lengthAdjust="spacingAndGlyphs" textLength="55" x="88" y="355.2305">optional</text><line style="stroke: #A80036; stroke-width: 1.0;" x1="117" x2="159" y1="380.2832" y2="380.2832"/><line style="stroke: #A80036; stroke-width: 1.0;" x1="159" x2="159" y1="380.2832" y2="393.2832"/><line style="stroke: #A80036; stroke-width: 1.0;" x1="118" x2="159" y1="393.2832" y2="393.2832"/><polygon fill="#A80036" points="128,389.2832,118,393.2832,128,397.2832,124,393.2832" style="stroke: #A80036; stroke-width: 1.0;"/><text fill="#000000" font-family="sans-serif" font-size="13" lengthAdjust="spacingAndGlyphs" textLength="75" x="124" y="375.541">check claim</text><rect fill="#EEEEEE" filter="url(#f14rvuw903eklf)" height="3" style="stroke: #EEEEEE; stroke-width: 1.0;" width="701.5" x="3" y="453.9385"/><line style="stroke: #000000; stroke-width: 1.0;" x1="3" x2="704.5" y1="453.9385" y2="453.9385"/><line style="stroke: #000000; stroke-width: 1.0;" x1="3" x2="704.5" y1="456.9385" y2="456.9385"/><rect fill="#EEEEEE" filter="url(#f14rvuw903eklf)" height="23.3105" style="stroke: #000000; stroke-width: 2.0;" width="178" x="264.75" y="443.2832"/><text fill="#000000" font-family="sans-serif" font-size="13" font-weight="bold" lengthAdjust="spacingAndGlyphs" textLength="160" x="270.75" y="459.8516">Trust Chain Verification</text><polygon fill="#A80036" points="338,509.2148,348,513.2148,338,517.2148,342,513.2148" style="stroke: #A80036; stroke-width: 1.0;"/><line style="stroke: #A80036; stroke-width: 1.0;" x1="117" x2="344" y1="513.2148" y2="513.2148"/><text fill="#000000" font-family="sans-serif" font-size="13" lengthAdjust="spacingAndGlyphs" textLength="162" x="124" y="493.1621">get token creator account</text><text fill="#000000" font-family="sans-serif" font-size="13" lengthAdjust="spacingAndGlyphs" textLength="66" x="124" y="508.4727">data fields</text><path d="M43,553.2148 L117,553.2148 L117,560.2148 L107,570.2148 L43,570.2148 L43,553.2148 " fill="#EEEEEE" style="stroke: #000000; stroke-width: 1.0;"/><rect fill="none" height="875.4531" style="stroke: #000000; stroke-width: 2.0;" width="651.5" x="43" y="553.2148"/><text fill="#000000" font-family="sans-serif" font-size="13" font-weight="bold" lengthAdjust="spacingAndGlyphs" textLength="29" x="58" y="566.7832">loop</text><line style="stroke: #A80036; stroke-width: 1.0;" x1="117" x2="159" y1="607.1465" y2="607.1465"/><line style="stroke: #A80036; stroke-width: 1.0;" x1="159" x2="159" y1="607.1465" y2="620.1465"/><line style="stroke: #A80036; stroke-width: 1.0;" x1="118" x2="159" y1="620.1465" y2="620.1465"/><polygon fill="#A80036" points="128,616.1465,118,620.1465,128,624.1465,124,620.1465" style="stroke: #A80036; stroke-width: 1.0;"/><text fill="#000000" font-family="sans-serif" font-size="13" lengthAdjust="spacingAndGlyphs" textLength="149" x="124" y="587.0938">check formal validity of</text><text fill="#000000" font-family="sans-serif" font-size="13" lengthAdjust="spacingAndGlyphs" textLength="66" x="124" y="602.4043">data fields</text><path d="M73,635.1465 L173,635.1465 L173,642.1465 L163,652.1465 L73,652.1465 L73,635.1465 " fill="#EEEEEE" style="stroke: #000000; stroke-width: 1.0;"/><rect fill="none" height="59.6211" style="stroke: #000000; stroke-width: 2.0;" width="140" x="73" y="635.1465"/><text fill="#000000" font-family="sans-serif" font-size="13" font-weight="bold" lengthAdjust="spacingAndGlyphs" textLength="55" x="88" y="648.7148">optional</text><line style="stroke: #A80036; stroke-width: 1.0;" x1="117" x2="159" y1="673.7676" y2="673.7676"/><line style="stroke: #A80036; stroke-width: 1.0;" x1="159" x2="159" y1="673.7676" y2="686.7676"/><line style="stroke: #A80036; stroke-width: 1.0;" x1="118" x2="159" y1="686.7676" y2="686.7676"/><polygon fill="#A80036" points="128,682.7676,118,686.7676,128,690.7676,124,686.7676" style="stroke: #A80036; stroke-width: 1.0;"/><text fill="#000000" font-family="sans-serif" font-size="13" lengthAdjust="spacingAndGlyphs" textLength="77" x="124" y="669.0254">check entity</text><path d="M53,708.7676 L115,708.7676 L115,715.7676 L105,725.7676 L53,725.7676 L53,708.7676 " fill="#EEEEEE" style="stroke: #000000; stroke-width: 1.0;"/><rect fill="none" height="365.1055" style="stroke: #000000; stroke-width: 2.0;" width="568.5" x="53" y="708.7676"/><text fill="#000000" font-family="sans-serif" font-size="13" font-weight="bold" lengthAdjust="spacingAndGlyphs" textLength="17" x="68" y="722.3359">alt</text><text fill="#000000" font-family="sans-serif" font-size="11" font-weight="bold" lengthAdjust="spacingAndGlyphs" textLength="143" x="130" y="721.4023">[is claim creator account]</text><line style="stroke: #A80036; stroke-width: 1.0;" x1="117" x2="159" y1="747.3887" y2="747.3887"/><line style="stroke: #A80036; stroke-width: 1.0;" x1="159" x2="159" y1="747.3887" y2="760.3887"/><line style="stroke: #A80036; stroke-width: 1.0;" x1="118" x2="159" y1="760.3887" y2="760.3887"/><polygon fill="#A80036" points="128,756.3887,118,760.3887,128,764.3887,124,760.3887" style="stroke: #A80036; stroke-width: 1.0;"/><text fill="#000000" font-family="sans-serif" font-size="13" lengthAdjust="spacingAndGlyphs" textLength="195" x="124" y="742.6465">check if account state is active</text><line style="stroke: #000000; stroke-width: 1.0; stroke-dasharray: 2.0,2.0;" x1="53" x2="621.5" y1="769.3887" y2="769.3887"/><path d="M63,777.3887 L137,777.3887 L137,784.3887 L127,794.3887 L63,794.3887 L63,777.3887 " fill="#EEEEEE" style="stroke: #000000; stroke-width: 1.0;"/><rect fill="none" height="247.1738" style="stroke: #000000; stroke-width: 2.0;" width="548.5" x="63" y="777.3887"/><text fill="#000000" font-family="sans-serif" font-size="13" font-weight="bold" lengthAdjust="spacingAndGlyphs" textLength="29" x="78" y="790.957">loop</text><text fill="#000000" font-family="sans-serif" font-size="11" font-weight="bold" lengthAdjust="spacingAndGlyphs" textLength="220" x="152" y="790.0234">[as long as account state is deprecated]</text><polygon fill="#A80036" points="503.5,812.0098,513.5,816.0098,503.5,820.0098,507.5,816.0098" style="stroke: #A80036; stroke-width: 1.0;"/><line style="stroke: #A80036; stroke-width: 1.0;" x1="117" x2="509.5" y1="816.0098" y2="816.0098"/><text fill="#000000" font-family="sans-serif" font-size="13" lengthAdjust="spacingAndGlyphs" textLength="90" x="124" y="811.2676">get data fields</text><line style="stroke: #A80036; stroke-width: 1.0;" x1="117" x2="159" y1="845.3203" y2="845.3203"/><line style="stroke: #A80036; stroke-width: 1.0;" x1="159" x2="159" y1="845.3203" y2="858.3203"/><line style="stroke: #A80036; stroke-width: 1.0;" x1="118" x2="159" y1="858.3203" y2="858.3203"/><polygon fill="#A80036" points="128,854.3203,118,858.3203,128,862.3203,124,858.3203" style="stroke: #A80036; stroke-width: 1.0;"/><text fill="#000000" font-family="sans-serif" font-size="13" lengthAdjust="spacingAndGlyphs" textLength="219" x="124" y="840.5781">check formal validity of data fields</text><line style="stroke: #A80036; stroke-width: 1.0;" x1="117" x2="159" y1="887.6309" y2="887.6309"/><line style="stroke: #A80036; stroke-width: 1.0;" x1="159" x2="159" y1="887.6309" y2="900.6309"/><line style="stroke: #A80036; stroke-width: 1.0;" x1="118" x2="159" y1="900.6309" y2="900.6309"/><polygon fill="#A80036" points="128,896.6309,118,900.6309,128,904.6309,124,900.6309" style="stroke: #A80036; stroke-width: 1.0;"/><text fill="#000000" font-family="sans-serif" font-size="13" lengthAdjust="spacingAndGlyphs" textLength="108" x="124" y="882.8887">check entity type</text><path d="M73,915.6309 L173,915.6309 L173,922.6309 L163,932.6309 L73,932.6309 L73,915.6309 " fill="#EEEEEE" style="stroke: #000000; stroke-width: 1.0;"/><rect fill="none" height="59.6211" style="stroke: #000000; stroke-width: 2.0;" width="140" x="73" y="915.6309"/><text fill="#000000" font-family="sans-serif" font-size="13" font-weight="bold" lengthAdjust="spacingAndGlyphs" textLength="55" x="88" y="929.1992">optional</text><line style="stroke: #A80036; stroke-width: 1.0;" x1="117" x2="159" y1="954.252" y2="954.252"/><line style="stroke: #A80036; stroke-width: 1.0;" x1="159" x2="159" y1="954.252" y2="967.252"/><line style="stroke: #A80036; stroke-width: 1.0;" x1="118" x2="159" y1="967.252" y2="967.252"/><polygon fill="#A80036" points="128,963.252,118,967.252,128,971.252,124,967.252" style="stroke: #A80036; stroke-width: 1.0;"/><text fill="#000000" font-family="sans-serif" font-size="13" lengthAdjust="spacingAndGlyphs" textLength="77" x="124" y="949.5098">check entity</text><line style="stroke: #A80036; stroke-width: 1.0;" x1="117" x2="159" y1="1003.5625" y2="1003.5625"/><line style="stroke: #A80036; stroke-width: 1.0;" x1="159" x2="159" y1="1003.5625" y2="1016.5625"/><line style="stroke: #A80036; stroke-width: 1.0;" x1="118" x2="159" y1="1016.5625" y2="1016.5625"/><polygon fill="#A80036" points="128,1012.5625,118,1016.5625,128,1020.5625,124,1016.5625" style="stroke: #A80036; stroke-width: 1.0;"/><text fill="#000000" font-family="sans-serif" font-size="13" lengthAdjust="spacingAndGlyphs" textLength="192" x="124" y="998.8203">treat new claimant as claimant</text><line style="stroke: #A80036; stroke-width: 1.0;" x1="117" x2="159" y1="1052.873" y2="1052.873"/><line style="stroke: #A80036; stroke-width: 1.0;" x1="159" x2="159" y1="1052.873" y2="1065.873"/><line style="stroke: #A80036; stroke-width: 1.0;" x1="118" x2="159" y1="1065.873" y2="1065.873"/><polygon fill="#A80036" points="128,1061.873,118,1065.873,128,1069.873,124,1065.873" style="stroke: #A80036; stroke-width: 1.0;"/><text fill="#000000" font-family="sans-serif" font-size="13" lengthAdjust="spacingAndGlyphs" textLength="195" x="124" y="1048.1309">check if account state is active</text><line style="stroke: #A80036; stroke-width: 1.0;" x1="117" x2="159" y1="1102.1836" y2="1102.1836"/><line style="stroke: #A80036; stroke-width: 1.0;" x1="159" x2="159" y1="1102.1836" y2="1115.1836"/><line style="stroke: #A80036; stroke-width: 1.0;" x1="118" x2="159" y1="1115.1836" y2="1115.1836"/><polygon fill="#A80036" points="128,1111.1836,118,1115.1836,128,1119.1836,124,1115.1836" style="stroke: #A80036; stroke-width: 1.0;"/><text fill="#000000" font-family="sans-serif" font-size="13" lengthAdjust="spacingAndGlyphs" textLength="166" x="124" y="1097.4414">check if entity type is root</text><path d="M63,1130.1836 L125,1130.1836 L125,1137.1836 L115,1147.1836 L63,1147.1836 L63,1130.1836 " fill="#EEEEEE" style="stroke: #000000; stroke-width: 1.0;"/><rect fill="none" height="219.8633" style="stroke: #000000; stroke-width: 2.0;" width="271" x="63" y="1130.1836"/><text fill="#000000" font-family="sans-serif" font-size="13" font-weight="bold" lengthAdjust="spacingAndGlyphs" textLength="17" x="78" y="1143.752">alt</text><text fill="#000000" font-family="sans-serif" font-size="11" font-weight="bold" lengthAdjust="spacingAndGlyphs" textLength="72" x="140" y="1142.8184">[type is root]</text><line style="stroke: #A80036; stroke-width: 1.0;" x1="117" x2="159" y1="1168.8047" y2="1168.8047"/><line style="stroke: #A80036; stroke-width: 1.0;" x1="159" x2="159" y1="1168.8047" y2="1181.8047"/><line style="stroke: #A80036; stroke-width: 1.0;" x1="118" x2="159" y1="1181.8047" y2="1181.8047"/><polygon fill="#A80036" points="128,1177.8047,118,1181.8047,128,1185.8047,124,1181.8047" style="stroke: #A80036; stroke-width: 1.0;"/><text fill="#000000" font-family="sans-serif" font-size="13" lengthAdjust="spacingAndGlyphs" textLength="165" x="124" y="1164.0625">check if account is known</text><line style="stroke: #A80036; stroke-width: 1.0;" x1="117" x2="159" y1="1211.1152" y2="1211.1152"/><line style="stroke: #A80036; stroke-width: 1.0;" x1="159" x2="159" y1="1211.1152" y2="1224.1152"/><line style="stroke: #A80036; stroke-width: 1.0;" x1="118" x2="159" y1="1224.1152" y2="1224.1152"/><polygon fill="#A80036" points="128,1220.1152,118,1224.1152,128,1228.1152,124,1224.1152" style="stroke: #A80036; stroke-width: 1.0;"/><text fill="#000000" font-family="sans-serif" font-size="13" lengthAdjust="spacingAndGlyphs" textLength="185" x="124" y="1206.373">check if property was self set</text><line style="stroke: #A80036; stroke-width: 1.0;" x1="117" x2="159" y1="1253.4258" y2="1253.4258"/><line style="stroke: #A80036; stroke-width: 1.0;" x1="159" x2="159" y1="1253.4258" y2="1266.4258"/><line style="stroke: #A80036; stroke-width: 1.0;" x1="118" x2="159" y1="1266.4258" y2="1266.4258"/><polygon fill="#A80036" points="128,1262.4258,118,1266.4258,128,1270.4258,124,1266.4258" style="stroke: #A80036; stroke-width: 1.0;"/><text fill="#000000" font-family="sans-serif" font-size="13" lengthAdjust="spacingAndGlyphs" textLength="190" x="124" y="1248.6836">break loop and return success</text><line style="stroke: #000000; stroke-width: 1.0; stroke-dasharray: 2.0,2.0;" x1="63" x2="334" y1="1275.4258" y2="1275.4258"/><path d="M73,1283.4258 L135,1283.4258 L135,1290.4258 L125,1300.4258 L73,1300.4258 L73,1283.4258 " fill="#EEEEEE" style="stroke: #000000; stroke-width: 1.0;"/><rect fill="none" height="59.6211" style="stroke: #000000; stroke-width: 2.0;" width="251" x="73" y="1283.4258"/><text fill="#000000" font-family="sans-serif" font-size="13" font-weight="bold" lengthAdjust="spacingAndGlyphs" textLength="17" x="88" y="1296.9941">alt</text><text fill="#000000" font-family="sans-serif" font-size="11" font-weight="bold" lengthAdjust="spacingAndGlyphs" textLength="165" x="150" y="1296.0605">[is not claim creator account]</text><line style="stroke: #A80036; stroke-width: 1.0;" x1="117" x2="159" y1="1322.0469" y2="1322.0469"/><line style="stroke: #A80036; stroke-width: 1.0;" x1="159" x2="159" y1="1322.0469" y2="1335.0469"/><line style="stroke: #A80036; stroke-width: 1.0;" x1="118" x2="159" y1="1335.0469" y2="1335.0469"/><polygon fill="#A80036" points="128,1331.0469,118,1335.0469,128,1339.0469,124,1335.0469" style="stroke: #A80036; stroke-width: 1.0;"/><text fill="#000000" font-family="sans-serif" font-size="13" lengthAdjust="spacingAndGlyphs" textLength="188" x="124" y="1317.3047">check if entity type is not leaf</text><polygon fill="#A80036" points="636,1374.3574,646,1378.3574,636,1382.3574,640,1378.3574" style="stroke: #A80036; stroke-width: 1.0;"/><line style="stroke: #A80036; stroke-width: 1.0;" x1="117" x2="642" y1="1378.3574" y2="1378.3574"/><text fill="#000000" font-family="sans-serif" font-size="13" lengthAdjust="spacingAndGlyphs" textLength="90" x="124" y="1373.6152">get data fields</text><line style="stroke: #A80036; stroke-width: 1.0;" x1="117" x2="159" y1="1407.668" y2="1407.668"/><line style="stroke: #A80036; stroke-width: 1.0;" x1="159" x2="159" y1="1407.668" y2="1420.668"/><line style="stroke: #A80036; stroke-width: 1.0;" x1="118" x2="159" y1="1420.668" y2="1420.668"/><polygon fill="#A80036" points="128,1416.668,118,1420.668,128,1424.668,124,1420.668" style="stroke: #A80036; stroke-width: 1.0;"/><text fill="#000000" font-family="sans-serif" font-size="13" lengthAdjust="spacingAndGlyphs" textLength="158" x="124" y="1402.9258">treat attestor as claimant</text><!--
@startuml


participant "Verifier" as VERI
participant "Claimant Account" as CLAI
participant "New Claimant Account" as NCLAI
participant "Attestor" as ATTE


== Precondition ==

-> VERI: received claim


...
== Claim Verification ==

VERI -> VERI: decode token
VERI -> VERI: check validity of token
VERI -> VERI: check validity of token\ncreator account

group optional
    VERI -> VERI: check claim
end
|||


== Trust Chain Verification ==

VERI -> CLAI: get token creator account\ndata fields
|||

loop
    VERI -> VERI: check formal validity of\ndata fields

    group optional
        VERI -> VERI: check entity
    end

    alt is claim creator account 
        VERI -> VERI: check if account state is active
    else
        loop as long as account state is deprecated
            VERI -> NCLAI: get data fields
            VERI -> VERI: check formal validity of data fields
            VERI -> VERI: check entity type
            
            group optional
                VERI -> VERI: check entity
            end
            
            VERI -> VERI: treat new claimant as claimant
        end
        VERI -> VERI: check if account state is active
    end

    VERI -> VERI: check if entity type is root
    alt type is root
        VERI -> VERI: check if account is known
        VERI -> VERI: check if property was self set
        VERI -> VERI: break loop and return success
    else
        alt is not claim creator account
            VERI -> VERI: check if entity type is not leaf
        end
    end
    VERI -> ATTE: get data fields
    VERI -> VERI: treat attestor as claimant
end
|||

@enduml

PlantUML version 1.2019.09(Mon Aug 26 18:19:51 CEST 2019)
(GPL source distribution)
Java Runtime: Java(TM) SE Runtime Environment
JVM: Java HotSpot(TM) 64-Bit Server VM
Java Version: 1.8.0_191-b12
Operating System: Mac OS X
OS Version: 10.15.2
Default Encoding: UTF-8
Language: en
Country: DE
--></g></svg>