<?xml version="1.0" encoding="UTF-8" standalone="no"?><svg xmlns="http://www.w3.org/2000/svg" xmlns:xlink="http://www.w3.org/1999/xlink" contentScriptType="application/ecmascript" contentStyleType="text/css" height="1243px" preserveAspectRatio="none" style="width:795px;height:1243px;" version="1.1" viewBox="0 0 795 1243" width="795px" zoomAndPan="magnify"><defs><filter height="300%" id="fqc54qpdd4n97" width="300%" x="-1" y="-1"><feGaussianBlur result="blurOut" stdDeviation="2.0"/><feColorMatrix in="blurOut" result="blurOut2" type="matrix" values="0 0 0 0 0 0 0 0 0 0 0 0 0 0 0 0 0 0 .4 0"/><feOffset dx="4.0" dy="4.0" in="blurOut2" result="blurOut3"/><feBlend in="SourceGraphic" in2="blurOut3" mode="normal"/></filter></defs><g><line style="stroke: #A80036; stroke-width: 1.0;" x1="108" x2="108" y1="71.4648" y2="235.0176"/><line style="stroke: #A80036; stroke-width: 1.0; stroke-dasharray: 1.0,4.0;" x1="108" x2="108" y1="235.0176" y2="263.0176"/><line style="stroke: #A80036; stroke-width: 1.0;" x1="108" x2="108" y1="263.0176" y2="416.5703"/><line style="stroke: #A80036; stroke-width: 1.0; stroke-dasharray: 1.0,4.0;" x1="108" x2="108" y1="416.5703" y2="444.5703"/><line style="stroke: #A80036; stroke-width: 1.0;" x1="108" x2="108" y1="444.5703" y2="598.123"/><line style="stroke: #A80036; stroke-width: 1.0; stroke-dasharray: 1.0,4.0;" x1="108" x2="108" y1="598.123" y2="626.123"/><line style="stroke: #A80036; stroke-width: 1.0;" x1="108" x2="108" y1="626.123" y2="754.6758"/><line style="stroke: #A80036; stroke-width: 1.0; stroke-dasharray: 1.0,4.0;" x1="108" x2="108" y1="754.6758" y2="782.6758"/><line style="stroke: #A80036; stroke-width: 1.0;" x1="108" x2="108" y1="782.6758" y2="1021.4707"/><line style="stroke: #A80036; stroke-width: 1.0; stroke-dasharray: 1.0,4.0;" x1="108" x2="108" y1="1021.4707" y2="1049.4707"/><line style="stroke: #A80036; stroke-width: 1.0;" x1="108" x2="108" y1="1049.4707" y2="1170.0918"/><line style="stroke: #A80036; stroke-width: 1.0;" x1="318" x2="318" y1="71.4648" y2="235.0176"/><line style="stroke: #A80036; stroke-width: 1.0; stroke-dasharray: 1.0,4.0;" x1="318" x2="318" y1="235.0176" y2="263.0176"/><line style="stroke: #A80036; stroke-width: 1.0;" x1="318" x2="318" y1="263.0176" y2="416.5703"/><line style="stroke: #A80036; stroke-width: 1.0; stroke-dasharray: 1.0,4.0;" x1="318" x2="318" y1="416.5703" y2="444.5703"/><line style="stroke: #A80036; stroke-width: 1.0;" x1="318" x2="318" y1="444.5703" y2="598.123"/><line style="stroke: #A80036; stroke-width: 1.0; stroke-dasharray: 1.0,4.0;" x1="318" x2="318" y1="598.123" y2="626.123"/><line style="stroke: #A80036; stroke-width: 1.0;" x1="318" x2="318" y1="626.123" y2="754.6758"/><line style="stroke: #A80036; stroke-width: 1.0; stroke-dasharray: 1.0,4.0;" x1="318" x2="318" y1="754.6758" y2="782.6758"/><line style="stroke: #A80036; stroke-width: 1.0;" x1="318" x2="318" y1="782.6758" y2="1021.4707"/><line style="stroke: #A80036; stroke-width: 1.0; stroke-dasharray: 1.0,4.0;" x1="318" x2="318" y1="1021.4707" y2="1049.4707"/><line style="stroke: #A80036; stroke-width: 1.0;" x1="318" x2="318" y1="1049.4707" y2="1170.0918"/><rect fill="#FEFECE" filter="url(#fqc54qpdd4n97)" height="63.4648" style="stroke: #A80036; stroke-width: 1.5;" width="196" x="8" y="3"/><text fill="#000000" font-family="sans-serif" font-size="14" lengthAdjust="spacingAndGlyphs" textLength="115" x="48.5" y="23.5352">Attestor Account</text><text fill="#000000" font-family="sans-serif" font-size="14" lengthAdjust="spacingAndGlyphs" textLength="62" x="75" y="40.0234">(ARDOR-</text><text fill="#000000" font-family="sans-serif" font-size="14" lengthAdjust="spacingAndGlyphs" textLength="182" x="15" y="56.5117">1111-1111-1111-11111)</text><rect fill="#FEFECE" filter="url(#fqc54qpdd4n97)" height="63.4648" style="stroke: #A80036; stroke-width: 1.5;" width="196" x="8" y="1169.0918"/><text fill="#000000" font-family="sans-serif" font-size="14" lengthAdjust="spacingAndGlyphs" textLength="115" x="48.5" y="1189.627">Attestor Account</text><text fill="#000000" font-family="sans-serif" font-size="14" lengthAdjust="spacingAndGlyphs" textLength="62" x="75" y="1206.1152">(ARDOR-</text><text fill="#000000" font-family="sans-serif" font-size="14" lengthAdjust="spacingAndGlyphs" textLength="182" x="15" y="1222.6035">1111-1111-1111-11111)</text><rect fill="#FEFECE" filter="url(#fqc54qpdd4n97)" height="63.4648" style="stroke: #A80036; stroke-width: 1.5;" width="196" x="218" y="3"/><text fill="#000000" font-family="sans-serif" font-size="14" lengthAdjust="spacingAndGlyphs" textLength="148" x="242" y="23.5352">New Attestor Account</text><text fill="#000000" font-family="sans-serif" font-size="14" lengthAdjust="spacingAndGlyphs" textLength="62" x="285" y="40.0234">(ARDOR-</text><text fill="#000000" font-family="sans-serif" font-size="14" lengthAdjust="spacingAndGlyphs" textLength="182" x="225" y="56.5117">2222-2222-2222-22222)</text><rect fill="#FEFECE" filter="url(#fqc54qpdd4n97)" height="63.4648" style="stroke: #A80036; stroke-width: 1.5;" width="196" x="218" y="1169.0918"/><text fill="#000000" font-family="sans-serif" font-size="14" lengthAdjust="spacingAndGlyphs" textLength="148" x="242" y="1189.627">New Attestor Account</text><text fill="#000000" font-family="sans-serif" font-size="14" lengthAdjust="spacingAndGlyphs" textLength="62" x="285" y="1206.1152">(ARDOR-</text><text fill="#000000" font-family="sans-serif" font-size="14" lengthAdjust="spacingAndGlyphs" textLength="182" x="225" y="1222.6035">2222-2222-2222-22222)</text><rect fill="#EEEEEE" filter="url(#fqc54qpdd4n97)" height="3" style="stroke: #EEEEEE; stroke-width: 1.0;" width="780" x="3" y="102.1201"/><line style="stroke: #000000; stroke-width: 1.0;" x1="3" x2="783" y1="102.1201" y2="102.1201"/><line style="stroke: #000000; stroke-width: 1.0;" x1="3" x2="783" y1="105.1201" y2="105.1201"/><rect fill="#EEEEEE" filter="url(#fqc54qpdd4n97)" height="23.3105" style="stroke: #000000; stroke-width: 2.0;" width="120" x="333" y="91.4648"/><text fill="#000000" font-family="sans-serif" font-size="13" font-weight="bold" lengthAdjust="spacingAndGlyphs" textLength="102" x="339" y="108.0332">Self Attestation</text><line style="stroke: #A80036; stroke-width: 1.0;" x1="108" x2="150" y1="167.5518" y2="167.5518"/><line style="stroke: #A80036; stroke-width: 1.0;" x1="150" x2="150" y1="167.5518" y2="180.5518"/><line style="stroke: #A80036; stroke-width: 1.0;" x1="109" x2="150" y1="180.5518" y2="180.5518"/><polygon fill="#A80036" points="119,176.5518,109,180.5518,119,184.5518,115,180.5518" style="stroke: #A80036; stroke-width: 1.0;"/><text fill="#000000" font-family="sans-serif" font-size="13" lengthAdjust="spacingAndGlyphs" textLength="130" x="115" y="162.8096">set account property</text><path d="M257,129.7754 L257,200.7754 L674,200.7754 L674,139.7754 L664,129.7754 L257,129.7754 " fill="#FBFB77" filter="url(#fqc54qpdd4n97)" style="stroke: #A80036; stroke-width: 1.0;"/><path d="M664,129.7754 L664,139.7754 L674,139.7754 L664,129.7754 " fill="#FBFB77" style="stroke: #A80036; stroke-width: 1.0;"/><text fill="#000000" font-family="sans-serif" font-size="13" lengthAdjust="spacingAndGlyphs" textLength="114" x="263" y="147.3438">accountProperty: {</text><text fill="#000000" font-family="sans-serif" font-size="13" lengthAdjust="spacingAndGlyphs" textLength="238" x="279" y="162.6543">property: ap://&lt;attestation context&gt;,</text><text fill="#000000" font-family="sans-serif" font-size="13" lengthAdjust="spacingAndGlyphs" textLength="380" x="279" y="177.9648">value: 200|r|a|0000-0000-0000-00000|&lt;account payload&gt;</text><text fill="#000000" font-family="sans-serif" font-size="13" lengthAdjust="spacingAndGlyphs" textLength="4" x="263" y="193.2754">}</text><rect fill="#EEEEEE" filter="url(#fqc54qpdd4n97)" height="3" style="stroke: #EEEEEE; stroke-width: 1.0;" width="780" x="3" y="283.6729"/><line style="stroke: #000000; stroke-width: 1.0;" x1="3" x2="783" y1="283.6729" y2="283.6729"/><line style="stroke: #000000; stroke-width: 1.0;" x1="3" x2="783" y1="286.6729" y2="286.6729"/><rect fill="#EEEEEE" filter="url(#fqc54qpdd4n97)" height="23.3105" style="stroke: #000000; stroke-width: 2.0;" width="161" x="312.5" y="273.0176"/><text fill="#000000" font-family="sans-serif" font-size="13" font-weight="bold" lengthAdjust="spacingAndGlyphs" textLength="143" x="318.5" y="289.5859">Account Deactivation</text><line style="stroke: #A80036; stroke-width: 1.0;" x1="108" x2="150" y1="349.1045" y2="349.1045"/><line style="stroke: #A80036; stroke-width: 1.0;" x1="150" x2="150" y1="349.1045" y2="362.1045"/><line style="stroke: #A80036; stroke-width: 1.0;" x1="109" x2="150" y1="362.1045" y2="362.1045"/><polygon fill="#A80036" points="119,358.1045,109,362.1045,119,366.1045,115,362.1045" style="stroke: #A80036; stroke-width: 1.0;"/><text fill="#000000" font-family="sans-serif" font-size="13" lengthAdjust="spacingAndGlyphs" textLength="154" x="115" y="344.3623">update account property</text><path d="M281,311.3281 L281,382.3281 L695,382.3281 L695,321.3281 L685,311.3281 L281,311.3281 " fill="#FBFB77" filter="url(#fqc54qpdd4n97)" style="stroke: #A80036; stroke-width: 1.0;"/><path d="M685,311.3281 L685,321.3281 L695,321.3281 L685,311.3281 " fill="#FBFB77" style="stroke: #A80036; stroke-width: 1.0;"/><text fill="#000000" font-family="sans-serif" font-size="13" lengthAdjust="spacingAndGlyphs" textLength="114" x="287" y="328.8965">accountProperty: {</text><text fill="#000000" font-family="sans-serif" font-size="13" lengthAdjust="spacingAndGlyphs" textLength="204" x="303" y="344.207">property: myAttestationContext,</text><text fill="#000000" font-family="sans-serif" font-size="13" lengthAdjust="spacingAndGlyphs" textLength="377" x="303" y="359.5176">value: 200|r|i|0000-0000-0000-00000|&lt;account payload&gt;</text><text fill="#000000" font-family="sans-serif" font-size="13" lengthAdjust="spacingAndGlyphs" textLength="4" x="287" y="374.8281">}</text><rect fill="#EEEEEE" filter="url(#fqc54qpdd4n97)" height="3" style="stroke: #EEEEEE; stroke-width: 1.0;" width="780" x="3" y="465.2256"/><line style="stroke: #000000; stroke-width: 1.0;" x1="3" x2="783" y1="465.2256" y2="465.2256"/><line style="stroke: #000000; stroke-width: 1.0;" x1="3" x2="783" y1="468.2256" y2="468.2256"/><rect fill="#EEEEEE" filter="url(#fqc54qpdd4n97)" height="23.3105" style="stroke: #000000; stroke-width: 2.0;" width="160" x="313" y="454.5703"/><text fill="#000000" font-family="sans-serif" font-size="13" font-weight="bold" lengthAdjust="spacingAndGlyphs" textLength="142" x="319" y="471.1387">Account Reactivation</text><line style="stroke: #A80036; stroke-width: 1.0;" x1="108" x2="150" y1="530.6572" y2="530.6572"/><line style="stroke: #A80036; stroke-width: 1.0;" x1="150" x2="150" y1="530.6572" y2="543.6572"/><line style="stroke: #A80036; stroke-width: 1.0;" x1="109" x2="150" y1="543.6572" y2="543.6572"/><polygon fill="#A80036" points="119,539.6572,109,543.6572,119,547.6572,115,543.6572" style="stroke: #A80036; stroke-width: 1.0;"/><text fill="#000000" font-family="sans-serif" font-size="13" lengthAdjust="spacingAndGlyphs" textLength="154" x="115" y="525.915">update account property</text><path d="M281,492.8809 L281,563.8809 L698,563.8809 L698,502.8809 L688,492.8809 L281,492.8809 " fill="#FBFB77" filter="url(#fqc54qpdd4n97)" style="stroke: #A80036; stroke-width: 1.0;"/><path d="M688,492.8809 L688,502.8809 L698,502.8809 L688,492.8809 " fill="#FBFB77" style="stroke: #A80036; stroke-width: 1.0;"/><text fill="#000000" font-family="sans-serif" font-size="13" lengthAdjust="spacingAndGlyphs" textLength="114" x="287" y="510.4492">accountProperty: {</text><text fill="#000000" font-family="sans-serif" font-size="13" lengthAdjust="spacingAndGlyphs" textLength="204" x="303" y="525.7598">property: myAttestationContext,</text><text fill="#000000" font-family="sans-serif" font-size="13" lengthAdjust="spacingAndGlyphs" textLength="380" x="303" y="541.0703">value: 200|r|a|0000-0000-0000-00000|&lt;account payload&gt;</text><text fill="#000000" font-family="sans-serif" font-size="13" lengthAdjust="spacingAndGlyphs" textLength="4" x="287" y="556.3809">}</text><rect fill="#EEEEEE" filter="url(#fqc54qpdd4n97)" height="3" style="stroke: #EEEEEE; stroke-width: 1.0;" width="780" x="3" y="646.7783"/><line style="stroke: #000000; stroke-width: 1.0;" x1="3" x2="783" y1="646.7783" y2="646.7783"/><line style="stroke: #000000; stroke-width: 1.0;" x1="3" x2="783" y1="649.7783" y2="649.7783"/><rect fill="#EEEEEE" filter="url(#fqc54qpdd4n97)" height="23.3105" style="stroke: #000000; stroke-width: 2.0;" width="183" x="301.5" y="636.123"/><text fill="#000000" font-family="sans-serif" font-size="13" font-weight="bold" lengthAdjust="spacingAndGlyphs" textLength="165" x="307.5" y="652.6914">Account Payload Update</text><line style="stroke: #A80036; stroke-width: 1.0;" x1="108" x2="150" y1="712.21" y2="712.21"/><line style="stroke: #A80036; stroke-width: 1.0;" x1="150" x2="150" y1="712.21" y2="725.21"/><line style="stroke: #A80036; stroke-width: 1.0;" x1="109" x2="150" y1="725.21" y2="725.21"/><polygon fill="#A80036" points="119,721.21,109,725.21,119,729.21,115,725.21" style="stroke: #A80036; stroke-width: 1.0;"/><text fill="#000000" font-family="sans-serif" font-size="13" lengthAdjust="spacingAndGlyphs" textLength="154" x="115" y="707.4678">update account property</text><path d="M281,674.4336 L281,745.4336 L727,745.4336 L727,684.4336 L717,674.4336 L281,674.4336 " fill="#FBFB77" filter="url(#fqc54qpdd4n97)" style="stroke: #A80036; stroke-width: 1.0;"/><path d="M717,674.4336 L717,684.4336 L727,684.4336 L717,674.4336 " fill="#FBFB77" style="stroke: #A80036; stroke-width: 1.0;"/><text fill="#000000" font-family="sans-serif" font-size="13" lengthAdjust="spacingAndGlyphs" textLength="114" x="287" y="692.002">accountProperty: {</text><text fill="#000000" font-family="sans-serif" font-size="13" lengthAdjust="spacingAndGlyphs" textLength="238" x="303" y="707.3125">property: ap://&lt;attestation context&gt;,</text><text fill="#000000" font-family="sans-serif" font-size="13" lengthAdjust="spacingAndGlyphs" textLength="409" x="303" y="722.623">value: 200|r|a|0000-0000-0000-00000|&lt;new account payload&gt;</text><text fill="#000000" font-family="sans-serif" font-size="13" lengthAdjust="spacingAndGlyphs" textLength="4" x="287" y="737.9336">}</text><rect fill="#EEEEEE" filter="url(#fqc54qpdd4n97)" height="3" style="stroke: #EEEEEE; stroke-width: 1.0;" width="780" x="3" y="803.3311"/><line style="stroke: #000000; stroke-width: 1.0;" x1="3" x2="783" y1="803.3311" y2="803.3311"/><line style="stroke: #000000; stroke-width: 1.0;" x1="3" x2="783" y1="806.3311" y2="806.3311"/><rect fill="#EEEEEE" filter="url(#fqc54qpdd4n97)" height="23.3105" style="stroke: #000000; stroke-width: 2.0;" width="126" x="330" y="792.6758"/><text fill="#000000" font-family="sans-serif" font-size="13" font-weight="bold" lengthAdjust="spacingAndGlyphs" textLength="108" x="336" y="809.2441">Account Update</text><polygon fill="#A80036" points="306,871.2627,316,875.2627,306,879.2627,310,875.2627" style="stroke: #A80036; stroke-width: 1.0;"/><line style="stroke: #A80036; stroke-width: 1.0;" x1="108" x2="312" y1="875.2627" y2="875.2627"/><text fill="#000000" font-family="sans-serif" font-size="13" lengthAdjust="spacingAndGlyphs" textLength="130" x="115" y="870.5205">set account property</text><path d="M323,830.9863 L323,901.9863 L769,901.9863 L769,840.9863 L759,830.9863 L323,830.9863 " fill="#FBFB77" filter="url(#fqc54qpdd4n97)" style="stroke: #A80036; stroke-width: 1.0;"/><path d="M759,830.9863 L759,840.9863 L769,840.9863 L759,830.9863 " fill="#FBFB77" style="stroke: #A80036; stroke-width: 1.0;"/><text fill="#000000" font-family="sans-serif" font-size="13" lengthAdjust="spacingAndGlyphs" textLength="114" x="329" y="848.5547">accountProperty: {</text><text fill="#000000" font-family="sans-serif" font-size="13" lengthAdjust="spacingAndGlyphs" textLength="238" x="345" y="863.8652">property: ap://&lt;attestation context&gt;,</text><text fill="#000000" font-family="sans-serif" font-size="13" lengthAdjust="spacingAndGlyphs" textLength="409" x="345" y="879.1758">value: 200|r|a|0000-0000-0000-00000|&lt;new account payload&gt;</text><text fill="#000000" font-family="sans-serif" font-size="13" lengthAdjust="spacingAndGlyphs" textLength="4" x="329" y="894.4863">}</text><line style="stroke: #A80036; stroke-width: 1.0;" x1="108" x2="150" y1="954.0049" y2="954.0049"/><line style="stroke: #A80036; stroke-width: 1.0;" x1="150" x2="150" y1="954.0049" y2="967.0049"/><line style="stroke: #A80036; stroke-width: 1.0;" x1="109" x2="150" y1="967.0049" y2="967.0049"/><polygon fill="#A80036" points="119,963.0049,109,967.0049,119,971.0049,115,967.0049" style="stroke: #A80036; stroke-width: 1.0;"/><text fill="#000000" font-family="sans-serif" font-size="13" lengthAdjust="spacingAndGlyphs" textLength="154" x="115" y="949.2627">update account property</text><path d="M281,916.2285 L281,987.2285 L728,987.2285 L728,926.2285 L718,916.2285 L281,916.2285 " fill="#FBFB77" filter="url(#fqc54qpdd4n97)" style="stroke: #A80036; stroke-width: 1.0;"/><path d="M718,916.2285 L718,926.2285 L728,926.2285 L718,916.2285 " fill="#FBFB77" style="stroke: #A80036; stroke-width: 1.0;"/><text fill="#000000" font-family="sans-serif" font-size="13" lengthAdjust="spacingAndGlyphs" textLength="114" x="287" y="933.7969">accountProperty: {</text><text fill="#000000" font-family="sans-serif" font-size="13" lengthAdjust="spacingAndGlyphs" textLength="238" x="303" y="949.1074">property: ap://&lt;attestation context&gt;,</text><text fill="#000000" font-family="sans-serif" font-size="13" lengthAdjust="spacingAndGlyphs" textLength="410" x="303" y="964.418">value: 200|r|d|2222-2222-2222-22222|&lt;new account payload&gt;</text><text fill="#000000" font-family="sans-serif" font-size="13" lengthAdjust="spacingAndGlyphs" textLength="4" x="287" y="979.7285">}</text><rect fill="#EEEEEE" filter="url(#fqc54qpdd4n97)" height="3" style="stroke: #EEEEEE; stroke-width: 1.0;" width="780" x="3" y="1070.126"/><line style="stroke: #000000; stroke-width: 1.0;" x1="3" x2="783" y1="1070.126" y2="1070.126"/><line style="stroke: #000000; stroke-width: 1.0;" x1="3" x2="783" y1="1073.126" y2="1073.126"/><rect fill="#EEEEEE" filter="url(#fqc54qpdd4n97)" height="23.3105" style="stroke: #000000; stroke-width: 2.0;" width="170" x="308" y="1059.4707"/><text fill="#000000" font-family="sans-serif" font-size="13" font-weight="bold" lengthAdjust="spacingAndGlyphs" textLength="152" x="314" y="1076.0391">Attestation Revocation</text><line style="stroke: #A80036; stroke-width: 1.0;" x1="318" x2="360" y1="1114.0918" y2="1114.0918"/><line style="stroke: #A80036; stroke-width: 1.0;" x1="360" x2="360" y1="1114.0918" y2="1127.0918"/><line style="stroke: #A80036; stroke-width: 1.0;" x1="319" x2="360" y1="1127.0918" y2="1127.0918"/><polygon fill="#A80036" points="329,1123.0918,319,1127.0918,329,1131.0918,325,1127.0918" style="stroke: #A80036; stroke-width: 1.0;"/><text fill="#000000" font-family="sans-serif" font-size="13" lengthAdjust="spacingAndGlyphs" textLength="149" x="325" y="1109.3496">delete account property</text><!--
@startuml


participant "Attestor Account\n(ARDOR-\n1111-1111-1111-11111)" as ATTE
participant "New Attestor Account\n(ARDOR-\n2222-2222-2222-22222)" as NATTE


== Self Attestation ==

ATTE -> ATTE: set account property
note right
    accountProperty: {
        property: ap://<attestation context>,
        value: 200|r|a|0000-0000-0000-00000|<account payload>
    }
end note
|||


...
== Account Deactivation ==

ATTE -> ATTE: update account property
note right
    accountProperty: {
        property: myAttestationContext,
        value: 200|r|i|0000-0000-0000-00000|<account payload>
    }
end note
|||


...
== Account Reactivation ==

ATTE -> ATTE: update account property
note right
    accountProperty: {
        property: myAttestationContext,
        value: 200|r|a|0000-0000-0000-00000|<account payload>
    }
end note
|||


...
== Account Payload Update ==

ATTE -> ATTE: update account property
note right
    accountProperty: {
        property: ap://<attestation context>,
        value: 200|r|a|0000-0000-0000-00000|<new account payload>
    }
end note


...
== Account Update ==

ATTE -> NATTE: set account property
note right
    accountProperty: {
        property: ap://<attestation context>,
        value: 200|r|a|0000-0000-0000-00000|<new account payload>
    }
end note


ATTE -> ATTE: update account property
note right
    accountProperty: {
        property: ap://<attestation context>,
        value: 200|r|d|2222-2222-2222-22222|<new account payload>
    }
end note
|||


...
== Attestation Revocation ==

NATTE -> NATTE: delete account property
|||


@enduml

PlantUML version 1.2019.09(Mon Aug 26 18:19:51 CEST 2019)
(GPL source distribution)
Java Runtime: Java(TM) SE Runtime Environment
JVM: Java HotSpot(TM) 64-Bit Server VM
Java Version: 1.8.0_191-b12
Operating System: Mac OS X
OS Version: 10.15.2
Default Encoding: UTF-8
Language: en
Country: DE
--></g></svg>