<?xml version="1.0" encoding="UTF-8" standalone="no"?><svg xmlns="http://www.w3.org/2000/svg" xmlns:xlink="http://www.w3.org/1999/xlink" contentScriptType="application/ecmascript" contentStyleType="text/css" height="1224px" preserveAspectRatio="none" style="width:752px;height:1224px;" version="1.1" viewBox="0 0 752 1224" width="752px" zoomAndPan="magnify"><defs><filter height="300%" id="f4imfl4d45c4i" width="300%" x="-1" y="-1"><feGaussianBlur result="blurOut" stdDeviation="2.0"/><feColorMatrix in="blurOut" result="blurOut2" type="matrix" values="0 0 0 0 0 0 0 0 0 0 0 0 0 0 0 0 0 0 .4 0"/><feOffset dx="4.0" dy="4.0" in="blurOut2" result="blurOut3"/><feBlend in="SourceGraphic" in2="blurOut3" mode="normal"/></filter></defs><g><rect fill="#FFFFFF" filter="url(#f4imfl4d45c4i)" height="112.6211" style="stroke: #A80036; stroke-width: 1.0;" width="10" x="535" y="843.9414"/><rect fill="#FFFFFF" filter="url(#f4imfl4d45c4i)" height="70.3105" style="stroke: #A80036; stroke-width: 1.0;" width="10" x="540" y="886.252"/><rect fill="#FFFFFF" filter="url(#f4imfl4d45c4i)" height="28" style="stroke: #A80036; stroke-width: 1.0;" width="10" x="545" y="928.5625"/><rect fill="#FFFFFF" filter="url(#f4imfl4d45c4i)" height="127.9316" style="stroke: #A80036; stroke-width: 1.0;" width="10" x="535" y="1031.4941"/><rect fill="#FFFFFF" filter="url(#f4imfl4d45c4i)" height="85.6211" style="stroke: #A80036; stroke-width: 1.0;" width="10" x="540" y="1073.8047"/><rect fill="#FFFFFF" filter="url(#f4imfl4d45c4i)" height="28" style="stroke: #A80036; stroke-width: 1.0;" width="10" x="545" y="1131.4258"/><line style="stroke: #A80036; stroke-width: 1.0;" x1="153" x2="153" y1="38.4883" y2="136.4199"/><line style="stroke: #A80036; stroke-width: 1.0; stroke-dasharray: 1.0,4.0;" x1="153" x2="153" y1="136.4199" y2="164.4199"/><line style="stroke: #A80036; stroke-width: 1.0;" x1="153" x2="153" y1="164.4199" y2="439.2148"/><line style="stroke: #A80036; stroke-width: 1.0; stroke-dasharray: 1.0,4.0;" x1="153" x2="153" y1="439.2148" y2="467.2148"/><line style="stroke: #A80036; stroke-width: 1.0;" x1="153" x2="153" y1="467.2148" y2="683.3887"/><line style="stroke: #A80036; stroke-width: 1.0; stroke-dasharray: 1.0,4.0;" x1="153" x2="153" y1="683.3887" y2="711.3887"/><line style="stroke: #A80036; stroke-width: 1.0;" x1="153" x2="153" y1="711.3887" y2="1184.4258"/><line style="stroke: #A80036; stroke-width: 1.0;" x1="372" x2="372" y1="38.4883" y2="136.4199"/><line style="stroke: #A80036; stroke-width: 1.0; stroke-dasharray: 1.0,4.0;" x1="372" x2="372" y1="136.4199" y2="164.4199"/><line style="stroke: #A80036; stroke-width: 1.0;" x1="372" x2="372" y1="164.4199" y2="439.2148"/><line style="stroke: #A80036; stroke-width: 1.0; stroke-dasharray: 1.0,4.0;" x1="372" x2="372" y1="439.2148" y2="467.2148"/><line style="stroke: #A80036; stroke-width: 1.0;" x1="372" x2="372" y1="467.2148" y2="683.3887"/><line style="stroke: #A80036; stroke-width: 1.0; stroke-dasharray: 1.0,4.0;" x1="372" x2="372" y1="683.3887" y2="711.3887"/><line style="stroke: #A80036; stroke-width: 1.0;" x1="372" x2="372" y1="711.3887" y2="1184.4258"/><line style="stroke: #A80036; stroke-width: 1.0;" x1="540" x2="540" y1="38.4883" y2="136.4199"/><line style="stroke: #A80036; stroke-width: 1.0; stroke-dasharray: 1.0,4.0;" x1="540" x2="540" y1="136.4199" y2="164.4199"/><line style="stroke: #A80036; stroke-width: 1.0;" x1="540" x2="540" y1="164.4199" y2="439.2148"/><line style="stroke: #A80036; stroke-width: 1.0; stroke-dasharray: 1.0,4.0;" x1="540" x2="540" y1="439.2148" y2="467.2148"/><line style="stroke: #A80036; stroke-width: 1.0;" x1="540" x2="540" y1="467.2148" y2="683.3887"/><line style="stroke: #A80036; stroke-width: 1.0; stroke-dasharray: 1.0,4.0;" x1="540" x2="540" y1="683.3887" y2="711.3887"/><line style="stroke: #A80036; stroke-width: 1.0;" x1="540" x2="540" y1="711.3887" y2="1184.4258"/><rect fill="#FEFECE" filter="url(#f4imfl4d45c4i)" height="30.4883" style="stroke: #A80036; stroke-width: 1.5;" width="78" x="112" y="3"/><text fill="#000000" font-family="sans-serif" font-size="14" lengthAdjust="spacingAndGlyphs" textLength="64" x="119" y="23.5352">Authority</text><rect fill="#FEFECE" filter="url(#f4imfl4d45c4i)" height="30.4883" style="stroke: #A80036; stroke-width: 1.5;" width="78" x="112" y="1183.4258"/><text fill="#000000" font-family="sans-serif" font-size="14" lengthAdjust="spacingAndGlyphs" textLength="64" x="119" y="1203.9609">Authority</text><rect fill="#FEFECE" filter="url(#f4imfl4d45c4i)" height="30.4883" style="stroke: #A80036; stroke-width: 1.5;" width="52" x="344" y="3"/><text fill="#000000" font-family="sans-serif" font-size="14" lengthAdjust="spacingAndGlyphs" textLength="38" x="351" y="23.5352">Entity</text><rect fill="#FEFECE" filter="url(#f4imfl4d45c4i)" height="30.4883" style="stroke: #A80036; stroke-width: 1.5;" width="52" x="344" y="1183.4258"/><text fill="#000000" font-family="sans-serif" font-size="14" lengthAdjust="spacingAndGlyphs" textLength="38" x="351" y="1203.9609">Entity</text><rect fill="#FEFECE" filter="url(#f4imfl4d45c4i)" height="30.4883" style="stroke: #A80036; stroke-width: 1.5;" width="64" x="506" y="3"/><text fill="#000000" font-family="sans-serif" font-size="14" lengthAdjust="spacingAndGlyphs" textLength="50" x="513" y="23.5352">Verifier</text><rect fill="#FEFECE" filter="url(#f4imfl4d45c4i)" height="30.4883" style="stroke: #A80036; stroke-width: 1.5;" width="64" x="506" y="1183.4258"/><text fill="#000000" font-family="sans-serif" font-size="14" lengthAdjust="spacingAndGlyphs" textLength="50" x="513" y="1203.9609">Verifier</text><rect fill="#FFFFFF" filter="url(#f4imfl4d45c4i)" height="112.6211" style="stroke: #A80036; stroke-width: 1.0;" width="10" x="535" y="843.9414"/><rect fill="#FFFFFF" filter="url(#f4imfl4d45c4i)" height="70.3105" style="stroke: #A80036; stroke-width: 1.0;" width="10" x="540" y="886.252"/><rect fill="#FFFFFF" filter="url(#f4imfl4d45c4i)" height="28" style="stroke: #A80036; stroke-width: 1.0;" width="10" x="545" y="928.5625"/><rect fill="#FFFFFF" filter="url(#f4imfl4d45c4i)" height="127.9316" style="stroke: #A80036; stroke-width: 1.0;" width="10" x="535" y="1031.4941"/><rect fill="#FFFFFF" filter="url(#f4imfl4d45c4i)" height="85.6211" style="stroke: #A80036; stroke-width: 1.0;" width="10" x="540" y="1073.8047"/><rect fill="#FFFFFF" filter="url(#f4imfl4d45c4i)" height="28" style="stroke: #A80036; stroke-width: 1.0;" width="10" x="545" y="1131.4258"/><rect fill="#EEEEEE" filter="url(#f4imfl4d45c4i)" height="3" style="stroke: #EEEEEE; stroke-width: 1.0;" width="737" x="3" y="69.1436"/><line style="stroke: #000000; stroke-width: 1.0;" x1="3" x2="740" y1="69.1436" y2="69.1436"/><line style="stroke: #000000; stroke-width: 1.0;" x1="3" x2="740" y1="72.1436" y2="72.1436"/><rect fill="#EEEEEE" filter="url(#f4imfl4d45c4i)" height="23.3105" style="stroke: #000000; stroke-width: 2.0;" width="103" x="320" y="58.4883"/><text fill="#000000" font-family="sans-serif" font-size="13" font-weight="bold" lengthAdjust="spacingAndGlyphs" textLength="85" x="326" y="75.0566">Precondition</text><polygon fill="#A80036" points="141,124.4199,151,128.4199,141,132.4199,145,128.4199" style="stroke: #A80036; stroke-width: 1.0;"/><line style="stroke: #A80036; stroke-width: 1.0;" x1="3" x2="147" y1="128.4199" y2="128.4199"/><text fill="#000000" font-family="sans-serif" font-size="13" lengthAdjust="spacingAndGlyphs" textLength="73" x="10" y="108.3672">attested via</text><text fill="#000000" font-family="sans-serif" font-size="13" lengthAdjust="spacingAndGlyphs" textLength="126" x="10" y="123.6777">Attestation Protocol</text><rect fill="#EEEEEE" filter="url(#f4imfl4d45c4i)" height="3" style="stroke: #EEEEEE; stroke-width: 1.0;" width="737" x="3" y="185.0752"/><line style="stroke: #000000; stroke-width: 1.0;" x1="3" x2="740" y1="185.0752" y2="185.0752"/><line style="stroke: #000000; stroke-width: 1.0;" x1="3" x2="740" y1="188.0752" y2="188.0752"/><rect fill="#EEEEEE" filter="url(#f4imfl4d45c4i)" height="23.3105" style="stroke: #000000; stroke-width: 2.0;" width="142" x="300.5" y="174.4199"/><text fill="#000000" font-family="sans-serif" font-size="13" font-weight="bold" lengthAdjust="spacingAndGlyphs" textLength="124" x="306.5" y="190.9883">Claim Registration</text><line style="stroke: #A80036; stroke-width: 1.0;" x1="153" x2="195" y1="229.041" y2="229.041"/><line style="stroke: #A80036; stroke-width: 1.0;" x1="195" x2="195" y1="229.041" y2="242.041"/><line style="stroke: #A80036; stroke-width: 1.0;" x1="154" x2="195" y1="242.041" y2="242.041"/><polygon fill="#A80036" points="164,238.041,154,242.041,164,246.041,160,242.041" style="stroke: #A80036; stroke-width: 1.0;"/><text fill="#000000" font-family="sans-serif" font-size="13" lengthAdjust="spacingAndGlyphs" textLength="142" x="160" y="224.2988">collect claim user data</text><line style="stroke: #A80036; stroke-width: 1.0;" x1="153" x2="195" y1="271.3516" y2="271.3516"/><line style="stroke: #A80036; stroke-width: 1.0;" x1="195" x2="195" y1="271.3516" y2="284.3516"/><line style="stroke: #A80036; stroke-width: 1.0;" x1="154" x2="195" y1="284.3516" y2="284.3516"/><polygon fill="#A80036" points="164,280.3516,154,284.3516,164,288.3516,160,284.3516" style="stroke: #A80036; stroke-width: 1.0;"/><text fill="#000000" font-family="sans-serif" font-size="13" lengthAdjust="spacingAndGlyphs" textLength="177" x="160" y="266.6094">add nonce to each user data</text><line style="stroke: #A80036; stroke-width: 1.0;" x1="153" x2="195" y1="313.6621" y2="313.6621"/><line style="stroke: #A80036; stroke-width: 1.0;" x1="195" x2="195" y1="313.6621" y2="326.6621"/><line style="stroke: #A80036; stroke-width: 1.0;" x1="154" x2="195" y1="326.6621" y2="326.6621"/><polygon fill="#A80036" points="164,322.6621,154,326.6621,164,330.6621,160,326.6621" style="stroke: #A80036; stroke-width: 1.0;"/><text fill="#000000" font-family="sans-serif" font-size="13" lengthAdjust="spacingAndGlyphs" textLength="102" x="160" y="308.9199">create root hash</text><polygon fill="#A80036" points="360,397.9043,370,401.9043,360,405.9043,364,401.9043" style="stroke: #A80036; stroke-width: 1.0;"/><line style="stroke: #A80036; stroke-width: 1.0;" x1="153" x2="366" y1="401.9043" y2="401.9043"/><text fill="#000000" font-family="sans-serif" font-size="13" lengthAdjust="spacingAndGlyphs" textLength="122" x="160" y="351.2305">attest root hash via</text><text fill="#000000" font-family="sans-serif" font-size="13" lengthAdjust="spacingAndGlyphs" textLength="137" x="160" y="366.541">attestation payload in</text><text fill="#000000" font-family="sans-serif" font-size="13" lengthAdjust="spacingAndGlyphs" textLength="126" x="160" y="381.8516">Attestation Protocol</text><text fill="#000000" font-family="sans-serif" font-size="13" lengthAdjust="spacingAndGlyphs" textLength="68" x="160" y="397.1621">attestation</text><polygon fill="#A80036" points="360,427.2148,370,431.2148,360,435.2148,364,431.2148" style="stroke: #A80036; stroke-width: 1.0;"/><line style="stroke: #A80036; stroke-width: 1.0;" x1="153" x2="366" y1="431.2148" y2="431.2148"/><text fill="#000000" font-family="sans-serif" font-size="13" lengthAdjust="spacingAndGlyphs" textLength="195" x="160" y="426.4727">share collected claim user data</text><rect fill="#EEEEEE" filter="url(#f4imfl4d45c4i)" height="3" style="stroke: #EEEEEE; stroke-width: 1.0;" width="737" x="3" y="487.8701"/><line style="stroke: #000000; stroke-width: 1.0;" x1="3" x2="740" y1="487.8701" y2="487.8701"/><line style="stroke: #000000; stroke-width: 1.0;" x1="3" x2="740" y1="490.8701" y2="490.8701"/><rect fill="#EEEEEE" filter="url(#f4imfl4d45c4i)" height="23.3105" style="stroke: #000000; stroke-width: 2.0;" width="186" x="278.5" y="477.2148"/><text fill="#000000" font-family="sans-serif" font-size="13" font-weight="bold" lengthAdjust="spacingAndGlyphs" textLength="168" x="284.5" y="493.7832">Verifiable Claim Creation</text><line style="stroke: #A80036; stroke-width: 1.0;" x1="372" x2="414" y1="531.8359" y2="531.8359"/><line style="stroke: #A80036; stroke-width: 1.0;" x1="414" x2="414" y1="531.8359" y2="544.8359"/><line style="stroke: #A80036; stroke-width: 1.0;" x1="373" x2="414" y1="544.8359" y2="544.8359"/><polygon fill="#A80036" points="383,540.8359,373,544.8359,383,548.8359,379,544.8359" style="stroke: #A80036; stroke-width: 1.0;"/><text fill="#000000" font-family="sans-serif" font-size="13" lengthAdjust="spacingAndGlyphs" textLength="154" x="379" y="527.0938">select user data to claim</text><line style="stroke: #A80036; stroke-width: 1.0;" x1="372" x2="414" y1="589.457" y2="589.457"/><line style="stroke: #A80036; stroke-width: 1.0;" x1="414" x2="414" y1="589.457" y2="602.457"/><line style="stroke: #A80036; stroke-width: 1.0;" x1="373" x2="414" y1="602.457" y2="602.457"/><polygon fill="#A80036" points="383,598.457,373,602.457,383,606.457,379,602.457" style="stroke: #A80036; stroke-width: 1.0;"/><text fill="#000000" font-family="sans-serif" font-size="13" lengthAdjust="spacingAndGlyphs" textLength="117" x="379" y="569.4043">create claim based</text><text fill="#000000" font-family="sans-serif" font-size="13" lengthAdjust="spacingAndGlyphs" textLength="134" x="379" y="584.7148">on selected user data</text><line style="stroke: #A80036; stroke-width: 1.0;" x1="372" x2="414" y1="662.3887" y2="662.3887"/><line style="stroke: #A80036; stroke-width: 1.0;" x1="414" x2="414" y1="662.3887" y2="675.3887"/><line style="stroke: #A80036; stroke-width: 1.0;" x1="373" x2="414" y1="675.3887" y2="675.3887"/><polygon fill="#A80036" points="383,671.3887,373,675.3887,383,679.3887,379,675.3887" style="stroke: #A80036; stroke-width: 1.0;"/><text fill="#000000" font-family="sans-serif" font-size="13" lengthAdjust="spacingAndGlyphs" textLength="96" x="379" y="627.0254">sign claim with</text><text fill="#000000" font-family="sans-serif" font-size="13" lengthAdjust="spacingAndGlyphs" textLength="126" x="379" y="642.3359">Attestation Protocol</text><text fill="#000000" font-family="sans-serif" font-size="13" lengthAdjust="spacingAndGlyphs" textLength="78" x="379" y="657.6465">data signing</text><rect fill="#EEEEEE" filter="url(#f4imfl4d45c4i)" height="3" style="stroke: #EEEEEE; stroke-width: 1.0;" width="737" x="3" y="732.0439"/><line style="stroke: #000000; stroke-width: 1.0;" x1="3" x2="740" y1="732.0439" y2="732.0439"/><line style="stroke: #000000; stroke-width: 1.0;" x1="3" x2="740" y1="735.0439" y2="735.0439"/><rect fill="#EEEEEE" filter="url(#f4imfl4d45c4i)" height="23.3105" style="stroke: #000000; stroke-width: 2.0;" width="137" x="303" y="721.3887"/><text fill="#000000" font-family="sans-serif" font-size="13" font-weight="bold" lengthAdjust="spacingAndGlyphs" textLength="119" x="309" y="737.957">Claim Verification</text><polygon fill="#A80036" points="528,772.0098,538,776.0098,528,780.0098,532,776.0098" style="stroke: #A80036; stroke-width: 1.0;"/><line style="stroke: #A80036; stroke-width: 1.0;" x1="372" x2="534" y1="776.0098" y2="776.0098"/><text fill="#000000" font-family="sans-serif" font-size="13" lengthAdjust="spacingAndGlyphs" textLength="118" x="379" y="771.2676">share signed claim</text><line style="stroke: #A80036; stroke-width: 1.0;" x1="540" x2="587" y1="830.9414" y2="830.9414"/><line style="stroke: #A80036; stroke-width: 1.0;" x1="587" x2="587" y1="830.9414" y2="843.9414"/><line style="stroke: #A80036; stroke-width: 1.0;" x1="546" x2="587" y1="843.9414" y2="843.9414"/><polygon fill="#A80036" points="556,839.9414,546,843.9414,556,847.9414,552,843.9414" style="stroke: #A80036; stroke-width: 1.0;"/><text fill="#000000" font-family="sans-serif" font-size="13" lengthAdjust="spacingAndGlyphs" textLength="150" x="552" y="795.5781">verify signed claim with</text><text fill="#000000" font-family="sans-serif" font-size="13" lengthAdjust="spacingAndGlyphs" textLength="126" x="552" y="810.8887">Attestation Protocol</text><text fill="#000000" font-family="sans-serif" font-size="13" lengthAdjust="spacingAndGlyphs" textLength="102" x="552" y="826.1992">data verification</text><line style="stroke: #A80036; stroke-width: 1.0;" x1="545" x2="592" y1="873.252" y2="873.252"/><line style="stroke: #A80036; stroke-width: 1.0;" x1="592" x2="592" y1="873.252" y2="886.252"/><line style="stroke: #A80036; stroke-width: 1.0;" x1="551" x2="592" y1="886.252" y2="886.252"/><polygon fill="#A80036" points="561,882.252,551,886.252,561,890.252,557,886.252" style="stroke: #A80036; stroke-width: 1.0;"/><text fill="#000000" font-family="sans-serif" font-size="13" lengthAdjust="spacingAndGlyphs" textLength="114" x="557" y="868.5098">check signed data</text><line style="stroke: #A80036; stroke-width: 1.0;" x1="555" x2="597" y1="920.5625" y2="920.5625"/><line style="stroke: #A80036; stroke-width: 1.0;" x1="597" x2="597" y1="920.5625" y2="933.5625"/><line style="stroke: #A80036; stroke-width: 1.0;" x1="556" x2="597" y1="933.5625" y2="933.5625"/><polygon fill="#A80036" points="566,929.5625,556,933.5625,566,937.5625,562,933.5625" style="stroke: #A80036; stroke-width: 1.0;"/><text fill="#000000" font-family="sans-serif" font-size="13" lengthAdjust="spacingAndGlyphs" textLength="73" x="562" y="915.8203">verify claim</text><line style="stroke: #A80036; stroke-width: 1.0;" x1="540" x2="587" y1="1018.4941" y2="1018.4941"/><line style="stroke: #A80036; stroke-width: 1.0;" x1="587" x2="587" y1="1018.4941" y2="1031.4941"/><line style="stroke: #A80036; stroke-width: 1.0;" x1="546" x2="587" y1="1031.4941" y2="1031.4941"/><polygon fill="#A80036" points="556,1027.4941,546,1031.4941,556,1035.4941,552,1031.4941" style="stroke: #A80036; stroke-width: 1.0;"/><text fill="#000000" font-family="sans-serif" font-size="13" lengthAdjust="spacingAndGlyphs" textLength="106" x="552" y="983.1309">verify entity with</text><text fill="#000000" font-family="sans-serif" font-size="13" lengthAdjust="spacingAndGlyphs" textLength="126" x="552" y="998.4414">Attestation Protocol</text><text fill="#000000" font-family="sans-serif" font-size="13" lengthAdjust="spacingAndGlyphs" textLength="143" x="552" y="1013.752">trust chain verification</text><line style="stroke: #A80036; stroke-width: 1.0;" x1="545" x2="592" y1="1060.8047" y2="1060.8047"/><line style="stroke: #A80036; stroke-width: 1.0;" x1="592" x2="592" y1="1060.8047" y2="1073.8047"/><line style="stroke: #A80036; stroke-width: 1.0;" x1="551" x2="592" y1="1073.8047" y2="1073.8047"/><polygon fill="#A80036" points="561,1069.8047,551,1073.8047,561,1077.8047,557,1073.8047" style="stroke: #A80036; stroke-width: 1.0;"/><text fill="#000000" font-family="sans-serif" font-size="13" lengthAdjust="spacingAndGlyphs" textLength="77" x="557" y="1056.0625">check entity</text><line style="stroke: #A80036; stroke-width: 1.0;" x1="555" x2="597" y1="1123.4258" y2="1123.4258"/><line style="stroke: #A80036; stroke-width: 1.0;" x1="597" x2="597" y1="1123.4258" y2="1136.4258"/><line style="stroke: #A80036; stroke-width: 1.0;" x1="556" x2="597" y1="1136.4258" y2="1136.4258"/><polygon fill="#A80036" points="566,1132.4258,556,1136.4258,566,1140.4258,562,1136.4258" style="stroke: #A80036; stroke-width: 1.0;"/><text fill="#000000" font-family="sans-serif" font-size="13" lengthAdjust="spacingAndGlyphs" textLength="162" x="562" y="1103.373">check if entity attestation</text><text fill="#000000" font-family="sans-serif" font-size="13" lengthAdjust="spacingAndGlyphs" textLength="171" x="562" y="1118.6836">payload contains root hash</text><!--
@startuml


participant "Authority" as AUTH
participant "Entity" as ENTI
participant "Verifier" as VERI


== Precondition ==

-> AUTH: attested via\nAttestation Protocol
...


== Claim Registration ==

AUTH -> AUTH: collect claim user data
AUTH -> AUTH: add nonce to each user data
AUTH -> AUTH: create root hash
AUTH -> ENTI: attest root hash via\nattestation payload in\nAttestation Protocol\nattestation
AUTH -> ENTI: share collected claim user data
...


== Verifiable Claim Creation ==

ENTI -> ENTI: select user data to claim
ENTI -> ENTI: create claim based\non selected user data
ENTI -> ENTI: sign claim with\nAttestation Protocol\ndata signing
...


== Claim Verification ==

ENTI -> VERI: share signed claim
VERI -> VERI: verify signed claim with\nAttestation Protocol\ndata verification
activate VERI
VERI -> VERI: check signed data
activate VERI
VERI -> VERI: verify claim
activate VERI
deactivate VERI
deactivate VERI
deactivate VERI

VERI -> VERI: verify entity with\nAttestation Protocol\ntrust chain verification
activate VERI
VERI -> VERI: check entity
activate VERI
VERI -> VERI: check if entity attestation\npayload contains root hash
activate VERI
deactivate VERI
deactivate VERI
deactivate VERI



@enduml

PlantUML version 1.2019.09(Mon Aug 26 18:19:51 CEST 2019)
(GPL source distribution)
Java Runtime: Java(TM) SE Runtime Environment
JVM: Java HotSpot(TM) 64-Bit Server VM
Java Version: 1.8.0_191-b12
Operating System: Mac OS X
OS Version: 10.15.2
Default Encoding: UTF-8
Language: en
Country: DE
--></g></svg>