<?xml version="1.0" encoding="UTF-8" standalone="no"?><svg xmlns="http://www.w3.org/2000/svg" xmlns:xlink="http://www.w3.org/1999/xlink" contentScriptType="application/ecmascript" contentStyleType="text/css" height="1500px" preserveAspectRatio="none" style="width:1098px;height:1500px;" version="1.1" viewBox="0 0 1098 1500" width="1098px" zoomAndPan="magnify"><defs><filter height="300%" id="fj7i6no8japhm" width="300%" x="-1" y="-1"><feGaussianBlur result="blurOut" stdDeviation="2.0"/><feColorMatrix in="blurOut" result="blurOut2" type="matrix" values="0 0 0 0 0 0 0 0 0 0 0 0 0 0 0 0 0 0 .4 0"/><feOffset dx="4.0" dy="4.0" in="blurOut2" result="blurOut3"/><feBlend in="SourceGraphic" in2="blurOut3" mode="normal"/></filter></defs><g><rect fill="#FFFFFF" filter="url(#fj7i6no8japhm)" height="103.8867" style="stroke: #000000; stroke-width: 2.0;" width="698" x="47" y="1281.334"/><rect fill="#FFFFFF" height="57.2656" style="stroke: none; stroke-width: 1.0;" width="698" x="47" y="1327.9551"/><line style="stroke: #A80036; stroke-width: 1.0;" x1="157" x2="157" y1="71.4648" y2="210.0176"/><line style="stroke: #A80036; stroke-width: 1.0; stroke-dasharray: 1.0,4.0;" x1="157" x2="157" y1="210.0176" y2="238.0176"/><line style="stroke: #A80036; stroke-width: 1.0;" x1="157" x2="157" y1="238.0176" y2="391.5703"/><line style="stroke: #A80036; stroke-width: 1.0; stroke-dasharray: 1.0,4.0;" x1="157" x2="157" y1="391.5703" y2="419.5703"/><line style="stroke: #A80036; stroke-width: 1.0;" x1="157" x2="157" y1="419.5703" y2="573.123"/><line style="stroke: #A80036; stroke-width: 1.0; stroke-dasharray: 1.0,4.0;" x1="157" x2="157" y1="573.123" y2="601.123"/><line style="stroke: #A80036; stroke-width: 1.0;" x1="157" x2="157" y1="601.123" y2="754.6758"/><line style="stroke: #A80036; stroke-width: 1.0; stroke-dasharray: 1.0,4.0;" x1="157" x2="157" y1="754.6758" y2="782.6758"/><line style="stroke: #A80036; stroke-width: 1.0;" x1="157" x2="157" y1="782.6758" y2="936.2285"/><line style="stroke: #A80036; stroke-width: 1.0; stroke-dasharray: 1.0,4.0;" x1="157" x2="157" y1="936.2285" y2="964.2285"/><line style="stroke: #A80036; stroke-width: 1.0;" x1="157" x2="157" y1="964.2285" y2="1203.0234"/><line style="stroke: #A80036; stroke-width: 1.0; stroke-dasharray: 1.0,4.0;" x1="157" x2="157" y1="1203.0234" y2="1231.0234"/><line style="stroke: #A80036; stroke-width: 1.0;" x1="157" x2="157" y1="1231.0234" y2="1427.2207"/><line style="stroke: #A80036; stroke-width: 1.0;" x1="367" x2="367" y1="71.4648" y2="210.0176"/><line style="stroke: #A80036; stroke-width: 1.0; stroke-dasharray: 1.0,4.0;" x1="367" x2="367" y1="210.0176" y2="238.0176"/><line style="stroke: #A80036; stroke-width: 1.0;" x1="367" x2="367" y1="238.0176" y2="391.5703"/><line style="stroke: #A80036; stroke-width: 1.0; stroke-dasharray: 1.0,4.0;" x1="367" x2="367" y1="391.5703" y2="419.5703"/><line style="stroke: #A80036; stroke-width: 1.0;" x1="367" x2="367" y1="419.5703" y2="573.123"/><line style="stroke: #A80036; stroke-width: 1.0; stroke-dasharray: 1.0,4.0;" x1="367" x2="367" y1="573.123" y2="601.123"/><line style="stroke: #A80036; stroke-width: 1.0;" x1="367" x2="367" y1="601.123" y2="754.6758"/><line style="stroke: #A80036; stroke-width: 1.0; stroke-dasharray: 1.0,4.0;" x1="367" x2="367" y1="754.6758" y2="782.6758"/><line style="stroke: #A80036; stroke-width: 1.0;" x1="367" x2="367" y1="782.6758" y2="936.2285"/><line style="stroke: #A80036; stroke-width: 1.0; stroke-dasharray: 1.0,4.0;" x1="367" x2="367" y1="936.2285" y2="964.2285"/><line style="stroke: #A80036; stroke-width: 1.0;" x1="367" x2="367" y1="964.2285" y2="1203.0234"/><line style="stroke: #A80036; stroke-width: 1.0; stroke-dasharray: 1.0,4.0;" x1="367" x2="367" y1="1203.0234" y2="1231.0234"/><line style="stroke: #A80036; stroke-width: 1.0;" x1="367" x2="367" y1="1231.0234" y2="1427.2207"/><line style="stroke: #A80036; stroke-width: 1.0;" x1="577" x2="577" y1="71.4648" y2="210.0176"/><line style="stroke: #A80036; stroke-width: 1.0; stroke-dasharray: 1.0,4.0;" x1="577" x2="577" y1="210.0176" y2="238.0176"/><line style="stroke: #A80036; stroke-width: 1.0;" x1="577" x2="577" y1="238.0176" y2="391.5703"/><line style="stroke: #A80036; stroke-width: 1.0; stroke-dasharray: 1.0,4.0;" x1="577" x2="577" y1="391.5703" y2="419.5703"/><line style="stroke: #A80036; stroke-width: 1.0;" x1="577" x2="577" y1="419.5703" y2="573.123"/><line style="stroke: #A80036; stroke-width: 1.0; stroke-dasharray: 1.0,4.0;" x1="577" x2="577" y1="573.123" y2="601.123"/><line style="stroke: #A80036; stroke-width: 1.0;" x1="577" x2="577" y1="601.123" y2="754.6758"/><line style="stroke: #A80036; stroke-width: 1.0; stroke-dasharray: 1.0,4.0;" x1="577" x2="577" y1="754.6758" y2="782.6758"/><line style="stroke: #A80036; stroke-width: 1.0;" x1="577" x2="577" y1="782.6758" y2="936.2285"/><line style="stroke: #A80036; stroke-width: 1.0; stroke-dasharray: 1.0,4.0;" x1="577" x2="577" y1="936.2285" y2="964.2285"/><line style="stroke: #A80036; stroke-width: 1.0;" x1="577" x2="577" y1="964.2285" y2="1203.0234"/><line style="stroke: #A80036; stroke-width: 1.0; stroke-dasharray: 1.0,4.0;" x1="577" x2="577" y1="1203.0234" y2="1231.0234"/><line style="stroke: #A80036; stroke-width: 1.0;" x1="577" x2="577" y1="1231.0234" y2="1427.2207"/><rect fill="#FEFECE" filter="url(#fj7i6no8japhm)" height="63.4648" style="stroke: #A80036; stroke-width: 1.5;" width="196" x="57" y="3"/><text fill="#000000" font-family="sans-serif" font-size="14" lengthAdjust="spacingAndGlyphs" textLength="115" x="97.5" y="23.5352">Attestor Account</text><text fill="#000000" font-family="sans-serif" font-size="14" lengthAdjust="spacingAndGlyphs" textLength="62" x="124" y="40.0234">(ARDOR-</text><text fill="#000000" font-family="sans-serif" font-size="14" lengthAdjust="spacingAndGlyphs" textLength="182" x="64" y="56.5117">1111-1111-1111-11111)</text><rect fill="#FEFECE" filter="url(#fj7i6no8japhm)" height="63.4648" style="stroke: #A80036; stroke-width: 1.5;" width="196" x="57" y="1426.2207"/><text fill="#000000" font-family="sans-serif" font-size="14" lengthAdjust="spacingAndGlyphs" textLength="115" x="97.5" y="1446.7559">Attestor Account</text><text fill="#000000" font-family="sans-serif" font-size="14" lengthAdjust="spacingAndGlyphs" textLength="62" x="124" y="1463.2441">(ARDOR-</text><text fill="#000000" font-family="sans-serif" font-size="14" lengthAdjust="spacingAndGlyphs" textLength="182" x="64" y="1479.7324">1111-1111-1111-11111)</text><rect fill="#FEFECE" filter="url(#fj7i6no8japhm)" height="63.4648" style="stroke: #A80036; stroke-width: 1.5;" width="196" x="267" y="3"/><text fill="#000000" font-family="sans-serif" font-size="14" lengthAdjust="spacingAndGlyphs" textLength="117" x="306.5" y="23.5352">Attested Account</text><text fill="#000000" font-family="sans-serif" font-size="14" lengthAdjust="spacingAndGlyphs" textLength="62" x="334" y="40.0234">(ARDOR-</text><text fill="#000000" font-family="sans-serif" font-size="14" lengthAdjust="spacingAndGlyphs" textLength="182" x="274" y="56.5117">2222-2222-2222-22222)</text><rect fill="#FEFECE" filter="url(#fj7i6no8japhm)" height="63.4648" style="stroke: #A80036; stroke-width: 1.5;" width="196" x="267" y="1426.2207"/><text fill="#000000" font-family="sans-serif" font-size="14" lengthAdjust="spacingAndGlyphs" textLength="117" x="306.5" y="1446.7559">Attested Account</text><text fill="#000000" font-family="sans-serif" font-size="14" lengthAdjust="spacingAndGlyphs" textLength="62" x="334" y="1463.2441">(ARDOR-</text><text fill="#000000" font-family="sans-serif" font-size="14" lengthAdjust="spacingAndGlyphs" textLength="182" x="274" y="1479.7324">2222-2222-2222-22222)</text><rect fill="#FEFECE" filter="url(#fj7i6no8japhm)" height="63.4648" style="stroke: #A80036; stroke-width: 1.5;" width="196" x="477" y="3"/><text fill="#000000" font-family="sans-serif" font-size="14" lengthAdjust="spacingAndGlyphs" textLength="150" x="500" y="23.5352">New Attested Account</text><text fill="#000000" font-family="sans-serif" font-size="14" lengthAdjust="spacingAndGlyphs" textLength="62" x="544" y="40.0234">(ARDOR-</text><text fill="#000000" font-family="sans-serif" font-size="14" lengthAdjust="spacingAndGlyphs" textLength="182" x="484" y="56.5117">3333-3333-3333-33333)</text><rect fill="#FEFECE" filter="url(#fj7i6no8japhm)" height="63.4648" style="stroke: #A80036; stroke-width: 1.5;" width="196" x="477" y="1426.2207"/><text fill="#000000" font-family="sans-serif" font-size="14" lengthAdjust="spacingAndGlyphs" textLength="150" x="500" y="1446.7559">New Attested Account</text><text fill="#000000" font-family="sans-serif" font-size="14" lengthAdjust="spacingAndGlyphs" textLength="62" x="544" y="1463.2441">(ARDOR-</text><text fill="#000000" font-family="sans-serif" font-size="14" lengthAdjust="spacingAndGlyphs" textLength="182" x="484" y="1479.7324">3333-3333-3333-33333)</text><rect fill="#EEEEEE" filter="url(#fj7i6no8japhm)" height="3" style="stroke: #EEEEEE; stroke-width: 1.0;" width="1083" x="3" y="102.1201"/><line style="stroke: #000000; stroke-width: 1.0;" x1="3" x2="1086" y1="102.1201" y2="102.1201"/><line style="stroke: #000000; stroke-width: 1.0;" x1="3" x2="1086" y1="105.1201" y2="105.1201"/><rect fill="#EEEEEE" filter="url(#fj7i6no8japhm)" height="23.3105" style="stroke: #000000; stroke-width: 2.0;" width="103" x="493" y="91.4648"/><text fill="#000000" font-family="sans-serif" font-size="13" font-weight="bold" lengthAdjust="spacingAndGlyphs" textLength="85" x="499" y="108.0332">Precondition</text><polygon fill="#A80036" points="145,170.0518,155,174.0518,145,178.0518,149,174.0518" style="stroke: #A80036; stroke-width: 1.0;"/><line style="stroke: #A80036; stroke-width: 1.0;" x1="3" x2="151" y1="174.0518" y2="174.0518"/><text fill="#000000" font-family="sans-serif" font-size="13" lengthAdjust="spacingAndGlyphs" textLength="130" x="10" y="169.3096">set account property</text><path d="M162,129.7754 L162,200.7754 L677,200.7754 L677,139.7754 L667,129.7754 L162,129.7754 " fill="#FBFB77" filter="url(#fj7i6no8japhm)" style="stroke: #A80036; stroke-width: 1.0;"/><path d="M667,129.7754 L667,139.7754 L677,139.7754 L667,129.7754 " fill="#FBFB77" style="stroke: #A80036; stroke-width: 1.0;"/><text fill="#000000" font-family="sans-serif" font-size="13" lengthAdjust="spacingAndGlyphs" textLength="114" x="168" y="147.3438">accountProperty: {</text><text fill="#000000" font-family="sans-serif" font-size="13" lengthAdjust="spacingAndGlyphs" textLength="238" x="184" y="162.6543">property: ap://&lt;attestation context&gt;,</text><text fill="#000000" font-family="sans-serif" font-size="13" lengthAdjust="spacingAndGlyphs" textLength="478" x="184" y="177.9648">value: 001|&lt;r or i&gt;|a|0000-0000-0000-00000|&lt;attestor account payload&gt;</text><text fill="#000000" font-family="sans-serif" font-size="13" lengthAdjust="spacingAndGlyphs" textLength="4" x="168" y="193.2754">}</text><rect fill="#EEEEEE" filter="url(#fj7i6no8japhm)" height="3" style="stroke: #EEEEEE; stroke-width: 1.0;" width="1083" x="3" y="258.6729"/><line style="stroke: #000000; stroke-width: 1.0;" x1="3" x2="1086" y1="258.6729" y2="258.6729"/><line style="stroke: #000000; stroke-width: 1.0;" x1="3" x2="1086" y1="261.6729" y2="261.6729"/><rect fill="#EEEEEE" filter="url(#fj7i6no8japhm)" height="23.3105" style="stroke: #000000; stroke-width: 2.0;" width="151" x="469" y="248.0176"/><text fill="#000000" font-family="sans-serif" font-size="13" font-weight="bold" lengthAdjust="spacingAndGlyphs" textLength="133" x="475" y="264.5859">Account Attestation</text><polygon fill="#A80036" points="355,326.6045,365,330.6045,355,334.6045,359,330.6045" style="stroke: #A80036; stroke-width: 1.0;"/><line style="stroke: #A80036; stroke-width: 1.0;" x1="157" x2="361" y1="330.6045" y2="330.6045"/><text fill="#000000" font-family="sans-serif" font-size="13" lengthAdjust="spacingAndGlyphs" textLength="130" x="164" y="325.8623">set account property</text><path d="M372,286.3281 L372,357.3281 L833,357.3281 L833,296.3281 L823,286.3281 L372,286.3281 " fill="#FBFB77" filter="url(#fj7i6no8japhm)" style="stroke: #A80036; stroke-width: 1.0;"/><path d="M823,286.3281 L823,296.3281 L833,296.3281 L823,286.3281 " fill="#FBFB77" style="stroke: #A80036; stroke-width: 1.0;"/><text fill="#000000" font-family="sans-serif" font-size="13" lengthAdjust="spacingAndGlyphs" textLength="114" x="378" y="303.8965">accountProperty: {</text><text fill="#000000" font-family="sans-serif" font-size="13" lengthAdjust="spacingAndGlyphs" textLength="238" x="394" y="319.207">property: ap://&lt;attestation context&gt;,</text><text fill="#000000" font-family="sans-serif" font-size="13" lengthAdjust="spacingAndGlyphs" textLength="424" x="394" y="334.5176">value: 001|&lt;i or l&gt;|a|0000-0000-0000-00000|&lt;account payload&gt;</text><text fill="#000000" font-family="sans-serif" font-size="13" lengthAdjust="spacingAndGlyphs" textLength="4" x="378" y="349.8281">}</text><rect fill="#EEEEEE" filter="url(#fj7i6no8japhm)" height="3" style="stroke: #EEEEEE; stroke-width: 1.0;" width="1083" x="3" y="440.2256"/><line style="stroke: #000000; stroke-width: 1.0;" x1="3" x2="1086" y1="440.2256" y2="440.2256"/><line style="stroke: #000000; stroke-width: 1.0;" x1="3" x2="1086" y1="443.2256" y2="443.2256"/><rect fill="#EEEEEE" filter="url(#fj7i6no8japhm)" height="23.3105" style="stroke: #000000; stroke-width: 2.0;" width="161" x="464" y="429.5703"/><text fill="#000000" font-family="sans-serif" font-size="13" font-weight="bold" lengthAdjust="spacingAndGlyphs" textLength="143" x="470" y="446.1387">Account Deactivation</text><polygon fill="#A80036" points="355,508.1572,365,512.1572,355,516.1572,359,512.1572" style="stroke: #A80036; stroke-width: 1.0;"/><line style="stroke: #A80036; stroke-width: 1.0;" x1="157" x2="361" y1="512.1572" y2="512.1572"/><text fill="#000000" font-family="sans-serif" font-size="13" lengthAdjust="spacingAndGlyphs" textLength="130" x="164" y="507.415">set account property</text><path d="M372,467.8809 L372,538.8809 L830,538.8809 L830,477.8809 L820,467.8809 L372,467.8809 " fill="#FBFB77" filter="url(#fj7i6no8japhm)" style="stroke: #A80036; stroke-width: 1.0;"/><path d="M820,467.8809 L820,477.8809 L830,477.8809 L820,467.8809 " fill="#FBFB77" style="stroke: #A80036; stroke-width: 1.0;"/><text fill="#000000" font-family="sans-serif" font-size="13" lengthAdjust="spacingAndGlyphs" textLength="114" x="378" y="485.4492">accountProperty: {</text><text fill="#000000" font-family="sans-serif" font-size="13" lengthAdjust="spacingAndGlyphs" textLength="238" x="394" y="500.7598">property: ap://&lt;attestation context&gt;,</text><text fill="#000000" font-family="sans-serif" font-size="13" lengthAdjust="spacingAndGlyphs" textLength="421" x="394" y="516.0703">value: 001|&lt;i or l&gt;|i|0000-0000-0000-00000|&lt;account payload&gt;</text><text fill="#000000" font-family="sans-serif" font-size="13" lengthAdjust="spacingAndGlyphs" textLength="4" x="378" y="531.3809">}</text><rect fill="#EEEEEE" filter="url(#fj7i6no8japhm)" height="3" style="stroke: #EEEEEE; stroke-width: 1.0;" width="1083" x="3" y="621.7783"/><line style="stroke: #000000; stroke-width: 1.0;" x1="3" x2="1086" y1="621.7783" y2="621.7783"/><line style="stroke: #000000; stroke-width: 1.0;" x1="3" x2="1086" y1="624.7783" y2="624.7783"/><rect fill="#EEEEEE" filter="url(#fj7i6no8japhm)" height="23.3105" style="stroke: #000000; stroke-width: 2.0;" width="160" x="464.5" y="611.123"/><text fill="#000000" font-family="sans-serif" font-size="13" font-weight="bold" lengthAdjust="spacingAndGlyphs" textLength="142" x="470.5" y="627.6914">Account Reactivation</text><polygon fill="#A80036" points="355,689.71,365,693.71,355,697.71,359,693.71" style="stroke: #A80036; stroke-width: 1.0;"/><line style="stroke: #A80036; stroke-width: 1.0;" x1="157" x2="361" y1="693.71" y2="693.71"/><text fill="#000000" font-family="sans-serif" font-size="13" lengthAdjust="spacingAndGlyphs" textLength="130" x="164" y="688.9678">set account property</text><path d="M372,649.4336 L372,720.4336 L833,720.4336 L833,659.4336 L823,649.4336 L372,649.4336 " fill="#FBFB77" filter="url(#fj7i6no8japhm)" style="stroke: #A80036; stroke-width: 1.0;"/><path d="M823,649.4336 L823,659.4336 L833,659.4336 L823,649.4336 " fill="#FBFB77" style="stroke: #A80036; stroke-width: 1.0;"/><text fill="#000000" font-family="sans-serif" font-size="13" lengthAdjust="spacingAndGlyphs" textLength="114" x="378" y="667.002">accountProperty: {</text><text fill="#000000" font-family="sans-serif" font-size="13" lengthAdjust="spacingAndGlyphs" textLength="238" x="394" y="682.3125">property: ap://&lt;attestation context&gt;,</text><text fill="#000000" font-family="sans-serif" font-size="13" lengthAdjust="spacingAndGlyphs" textLength="424" x="394" y="697.623">value: 001|&lt;i or l&gt;|a|0000-0000-0000-00000|&lt;account payload&gt;</text><text fill="#000000" font-family="sans-serif" font-size="13" lengthAdjust="spacingAndGlyphs" textLength="4" x="378" y="712.9336">}</text><rect fill="#EEEEEE" filter="url(#fj7i6no8japhm)" height="3" style="stroke: #EEEEEE; stroke-width: 1.0;" width="1083" x="3" y="803.3311"/><line style="stroke: #000000; stroke-width: 1.0;" x1="3" x2="1086" y1="803.3311" y2="803.3311"/><line style="stroke: #000000; stroke-width: 1.0;" x1="3" x2="1086" y1="806.3311" y2="806.3311"/><rect fill="#EEEEEE" filter="url(#fj7i6no8japhm)" height="23.3105" style="stroke: #000000; stroke-width: 2.0;" width="183" x="453" y="792.6758"/><text fill="#000000" font-family="sans-serif" font-size="13" font-weight="bold" lengthAdjust="spacingAndGlyphs" textLength="165" x="459" y="809.2441">Account Payload Update</text><polygon fill="#A80036" points="355,871.2627,365,875.2627,355,879.2627,359,875.2627" style="stroke: #A80036; stroke-width: 1.0;"/><line style="stroke: #A80036; stroke-width: 1.0;" x1="157" x2="361" y1="875.2627" y2="875.2627"/><text fill="#000000" font-family="sans-serif" font-size="13" lengthAdjust="spacingAndGlyphs" textLength="130" x="164" y="870.5205">set account property</text><path d="M372,830.9863 L372,901.9863 L862,901.9863 L862,840.9863 L852,830.9863 L372,830.9863 " fill="#FBFB77" filter="url(#fj7i6no8japhm)" style="stroke: #A80036; stroke-width: 1.0;"/><path d="M852,830.9863 L852,840.9863 L862,840.9863 L852,830.9863 " fill="#FBFB77" style="stroke: #A80036; stroke-width: 1.0;"/><text fill="#000000" font-family="sans-serif" font-size="13" lengthAdjust="spacingAndGlyphs" textLength="114" x="378" y="848.5547">accountProperty: {</text><text fill="#000000" font-family="sans-serif" font-size="13" lengthAdjust="spacingAndGlyphs" textLength="238" x="394" y="863.8652">property: ap://&lt;attestation context&gt;,</text><text fill="#000000" font-family="sans-serif" font-size="13" lengthAdjust="spacingAndGlyphs" textLength="453" x="394" y="879.1758">value: 001|&lt;i or l&gt;|a|0000-0000-0000-00000|&lt;new account payload&gt;</text><text fill="#000000" font-family="sans-serif" font-size="13" lengthAdjust="spacingAndGlyphs" textLength="4" x="378" y="894.4863">}</text><rect fill="#EEEEEE" filter="url(#fj7i6no8japhm)" height="3" style="stroke: #EEEEEE; stroke-width: 1.0;" width="1083" x="3" y="984.8838"/><line style="stroke: #000000; stroke-width: 1.0;" x1="3" x2="1086" y1="984.8838" y2="984.8838"/><line style="stroke: #000000; stroke-width: 1.0;" x1="3" x2="1086" y1="987.8838" y2="987.8838"/><rect fill="#EEEEEE" filter="url(#fj7i6no8japhm)" height="23.3105" style="stroke: #000000; stroke-width: 2.0;" width="126" x="481.5" y="974.2285"/><text fill="#000000" font-family="sans-serif" font-size="13" font-weight="bold" lengthAdjust="spacingAndGlyphs" textLength="108" x="487.5" y="990.7969">Account Update</text><polygon fill="#A80036" points="565,1052.8154,575,1056.8154,565,1060.8154,569,1056.8154" style="stroke: #A80036; stroke-width: 1.0;"/><line style="stroke: #A80036; stroke-width: 1.0;" x1="157" x2="571" y1="1056.8154" y2="1056.8154"/><text fill="#000000" font-family="sans-serif" font-size="13" lengthAdjust="spacingAndGlyphs" textLength="130" x="164" y="1052.0732">set account property</text><path d="M582,1012.5391 L582,1083.5391 L1072,1083.5391 L1072,1022.5391 L1062,1012.5391 L582,1012.5391 " fill="#FBFB77" filter="url(#fj7i6no8japhm)" style="stroke: #A80036; stroke-width: 1.0;"/><path d="M1062,1012.5391 L1062,1022.5391 L1072,1022.5391 L1062,1012.5391 " fill="#FBFB77" style="stroke: #A80036; stroke-width: 1.0;"/><text fill="#000000" font-family="sans-serif" font-size="13" lengthAdjust="spacingAndGlyphs" textLength="114" x="588" y="1030.1074">accountProperty: {</text><text fill="#000000" font-family="sans-serif" font-size="13" lengthAdjust="spacingAndGlyphs" textLength="238" x="604" y="1045.418">property: ap://&lt;attestation context&gt;,</text><text fill="#000000" font-family="sans-serif" font-size="13" lengthAdjust="spacingAndGlyphs" textLength="453" x="604" y="1060.7285">value: 001|&lt;i or l&gt;|a|0000-0000-0000-00000|&lt;new account payload&gt;</text><text fill="#000000" font-family="sans-serif" font-size="13" lengthAdjust="spacingAndGlyphs" textLength="4" x="588" y="1076.0391">}</text><polygon fill="#A80036" points="355,1138.0576,365,1142.0576,355,1146.0576,359,1142.0576" style="stroke: #A80036; stroke-width: 1.0;"/><line style="stroke: #A80036; stroke-width: 1.0;" x1="157" x2="361" y1="1142.0576" y2="1142.0576"/><text fill="#000000" font-family="sans-serif" font-size="13" lengthAdjust="spacingAndGlyphs" textLength="154" x="164" y="1137.3154">update account property</text><path d="M372,1097.7813 L372,1168.7813 L863,1168.7813 L863,1107.7813 L853,1097.7813 L372,1097.7813 " fill="#FBFB77" filter="url(#fj7i6no8japhm)" style="stroke: #A80036; stroke-width: 1.0;"/><path d="M853,1097.7813 L853,1107.7813 L863,1107.7813 L853,1097.7813 " fill="#FBFB77" style="stroke: #A80036; stroke-width: 1.0;"/><text fill="#000000" font-family="sans-serif" font-size="13" lengthAdjust="spacingAndGlyphs" textLength="114" x="378" y="1115.3496">accountProperty: {</text><text fill="#000000" font-family="sans-serif" font-size="13" lengthAdjust="spacingAndGlyphs" textLength="238" x="394" y="1130.6602">property: ap://&lt;attestation context&gt;,</text><text fill="#000000" font-family="sans-serif" font-size="13" lengthAdjust="spacingAndGlyphs" textLength="454" x="394" y="1145.9707">value: 001|&lt;i or l&gt;|d|3333-3333-3333-33333|&lt;new account payload&gt;</text><text fill="#000000" font-family="sans-serif" font-size="13" lengthAdjust="spacingAndGlyphs" textLength="4" x="378" y="1161.2813">}</text><rect fill="#EEEEEE" filter="url(#fj7i6no8japhm)" height="3" style="stroke: #EEEEEE; stroke-width: 1.0;" width="1083" x="3" y="1251.6787"/><line style="stroke: #000000; stroke-width: 1.0;" x1="3" x2="1086" y1="1251.6787" y2="1251.6787"/><line style="stroke: #000000; stroke-width: 1.0;" x1="3" x2="1086" y1="1254.6787" y2="1254.6787"/><rect fill="#EEEEEE" filter="url(#fj7i6no8japhm)" height="23.3105" style="stroke: #000000; stroke-width: 2.0;" width="170" x="459.5" y="1241.0234"/><text fill="#000000" font-family="sans-serif" font-size="13" font-weight="bold" lengthAdjust="spacingAndGlyphs" textLength="152" x="465.5" y="1257.5918">Attestation Revocation</text><path d="M47,1281.334 L109,1281.334 L109,1288.334 L99,1298.334 L47,1298.334 L47,1281.334 " fill="#EEEEEE" style="stroke: #000000; stroke-width: 1.0;"/><rect fill="none" height="103.8867" style="stroke: #000000; stroke-width: 2.0;" width="698" x="47" y="1281.334"/><text fill="#000000" font-family="sans-serif" font-size="13" font-weight="bold" lengthAdjust="spacingAndGlyphs" textLength="17" x="62" y="1294.9023">alt</text><text fill="#000000" font-family="sans-serif" font-size="11" font-weight="bold" lengthAdjust="spacingAndGlyphs" textLength="113" x="124" y="1293.9688">[attestor revocation]</text><polygon fill="#A80036" points="565,1315.9551,575,1319.9551,565,1323.9551,569,1319.9551" style="stroke: #A80036; stroke-width: 1.0;"/><line style="stroke: #A80036; stroke-width: 1.0;" x1="157" x2="571" y1="1319.9551" y2="1319.9551"/><text fill="#000000" font-family="sans-serif" font-size="13" lengthAdjust="spacingAndGlyphs" textLength="149" x="164" y="1315.2129">delete account property</text><line style="stroke: #000000; stroke-width: 1.0; stroke-dasharray: 2.0,2.0;" x1="47" x2="745" y1="1328.9551" y2="1328.9551"/><text fill="#000000" font-family="sans-serif" font-size="11" font-weight="bold" lengthAdjust="spacingAndGlyphs" textLength="92" x="52" y="1339.5898">[self revocation]</text><line style="stroke: #A80036; stroke-width: 1.0;" x1="577" x2="619" y1="1364.2207" y2="1364.2207"/><line style="stroke: #A80036; stroke-width: 1.0;" x1="619" x2="619" y1="1364.2207" y2="1377.2207"/><line style="stroke: #A80036; stroke-width: 1.0;" x1="578" x2="619" y1="1377.2207" y2="1377.2207"/><polygon fill="#A80036" points="588,1373.2207,578,1377.2207,588,1381.2207,584,1377.2207" style="stroke: #A80036; stroke-width: 1.0;"/><text fill="#000000" font-family="sans-serif" font-size="13" lengthAdjust="spacingAndGlyphs" textLength="149" x="584" y="1359.4785">delete account property</text><!--
@startuml


participant "Attestor Account\n(ARDOR-\n1111-1111-1111-11111)" as ATTE
participant "Attested Account\n(ARDOR-\n2222-2222-2222-22222)" as CLAI
participant "New Attested Account\n(ARDOR-\n3333-3333-3333-33333)" as NCLAI


== Precondition ==
[-> ATTE: set account property
note right
    accountProperty: {
        property: ap://<attestation context>,
        value: 001|<r or i>|a|0000-0000-0000-00000|<attestor account payload>
    }
end note


...
== Account Attestation ==

ATTE -> CLAI: set account property
note right
    accountProperty: {
        property: ap://<attestation context>,
        value: 001|<i or l>|a|0000-0000-0000-00000|<account payload>
    }
end note
|||


...
== Account Deactivation ==

ATTE -> CLAI: set account property
note right
    accountProperty: {
        property: ap://<attestation context>,
        value: 001|<i or l>|i|0000-0000-0000-00000|<account payload>
    }
end note
|||


...
== Account Reactivation ==

ATTE -> CLAI: set account property
note right
    accountProperty: {
        property: ap://<attestation context>,
        value: 001|<i or l>|a|0000-0000-0000-00000|<account payload>
    }
end note
|||


...
== Account Payload Update ==

ATTE -> CLAI: set account property
note right
    accountProperty: {
        property: ap://<attestation context>,
        value: 001|<i or l>|a|0000-0000-0000-00000|<new account payload>
    }
end note
|||


...
== Account Update ==

ATTE -> NCLAI: set account property
note right
    accountProperty: {
        property: ap://<attestation context>,
        value: 001|<i or l>|a|0000-0000-0000-00000|<new account payload>
    }
end note


ATTE -> CLAI: update account property
note right
    accountProperty: {
        property: ap://<attestation context>,
        value: 001|<i or l>|d|3333-3333-3333-33333|<new account payload>
    }
end note
|||


...
== Attestation Revocation ==

alt attestor revocation
    ATTE -> NCLAI: delete account property
else self revocation
    NCLAI -> NCLAI: delete account property
end
|||


@enduml

PlantUML version 1.2019.09(Mon Aug 26 18:19:51 CEST 2019)
(GPL source distribution)
Java Runtime: Java(TM) SE Runtime Environment
JVM: Java HotSpot(TM) 64-Bit Server VM
Java Version: 1.8.0_191-b12
Operating System: Mac OS X
OS Version: 10.15.2
Default Encoding: UTF-8
Language: en
Country: DE
--></g></svg>